<?xml version="1.0" encoding="UTF-8"?>
<svg id="Camada_2" data-name="Camada 2" xmlns="http://www.w3.org/2000/svg" viewBox="0 0 711.49 118.15">
  <defs>
    <style>
      .cls-1 {
        fill: #c2074f;
        stroke-width: 0px;
      }
    </style>
  </defs>
  <g id="Camada_6" data-name="Camada 6">
    <g>
      <path class="cls-1" d="M57.36,21c-.33,10.45-.49,21.68-.49,33.67s.16,23.21.49,33.65h-16.35s0-25.06,0-25.06l-25.19.25v24.81H0c.36-11.73.54-22.7.54-32.92s-.18-21.18-.54-32.9l15.83-.41v24.81l25.19-.41v-25.06l16.35-.43Z"/>
      <path class="cls-1" d="M65.83,29.15c-1.43-1.89-2.15-4.38-2.15-7.48s.71-5.57,2.15-7.59c1.43-2.03,3.63-3.09,6.61-3.17s5.01.86,6.53,2.84c1.52,1.98,2.28,4.47,2.28,7.47s-.74,5.66-2.21,7.63-3.67,2.98-6.6,3.04-5.17-.85-6.61-2.74ZM64.24,88.32c.33-9.98.49-18.23.49-24.74,0-7.75-.19-16.42-.56-26.03l17-.33c-.38,9.3-.57,18.04-.57,26.21,0,6.86.17,15.16.5,24.89h-16.86Z"/>
      <path class="cls-1" d="M100.03,72.44c1.47,2.16,2.21,5.16,2.21,9,0,3.15-.42,6.45-1.27,9.9-.84,3.45-2.01,6.25-3.51,8.38l-6.12-.03c2.01-3.56,3.29-7.07,3.81-10.52-2.5,0-4.49-.97-5.97-2.91-1.48-1.94-2.22-4.28-2.22-7.03s.74-5.1,2.22-7.05c1.48-1.95,3.28-2.93,5.39-2.95s3.98,1.05,5.45,3.21Z"/>
      <path class="cls-1" d="M165.4,37.4c-6.02-.27-10.45-.41-13.31-.42v32.88c2.91-.08,7.34-.34,13.31-.77v19.23h-43.45s0-18.91,0-18.91c5.65.34,9.97.53,12.94.58v-32.67c-2.97.12-7.29.43-12.94.91v-18.91l43.45-1.14v19.23Z"/>
      <path class="cls-1" d="M188.7,24.39c0,5.85-.99,10.82-2.97,14.92-1.98,4.09-4.56,7.13-7.73,9.12-2.4-3-4.44-5.23-6.12-6.69,5.05-1.83,8.2-5.1,9.43-9.78l-10.57.22V12.81l17.98-.51v12.08Z"/>
      <path class="cls-1" d="M255.67,88.31c.43-8.72.65-17.75.65-27.07,0-3-.61-5.34-1.83-7.02-1.22-1.68-2.82-2.51-4.82-2.48-1.83.02-3.41,1.04-4.72,3.05-1.32,2-1.97,4.89-1.97,8.67v-.1c0,11.73.13,20.05.4,24.95h-17.99c.32-9.68.48-18.6.48-26.77,0-2.9-.57-5.2-1.71-6.89-1.14-1.7-2.58-2.53-4.32-2.51-1.85.02-3.39,1.01-4.62,2.96-1.24,1.95-1.96,4.6-2.17,7.94-.11,4.98-.16,8.52-.16,10.62,0,4.46.1,9.34.32,14.65h-18.69c.41-9.38.62-18.23.62-26.57s-.21-17.25-.62-26.75c3.42.13,6.04.17,7.87.14,1.93-.04,4.56-.19,7.91-.45l2.36,14.5c1.21-5.33,3.12-9.28,5.76-11.86,2.64-2.58,5.68-3.91,9.12-3.98,4.14-.08,7.54,1.27,10.18,4.06,2.65,2.8,4.3,6.48,4.94,11.04,1.23-4.72,3.3-8.51,6.21-11.35,2.91-2.85,6.24-4.31,9.98-4.38,4.89-.1,8.74,1.85,11.52,5.84,2.79,4,4.19,9.53,4.19,16.56v16.69c0,7.57.05,13.07.16,16.49h-19.05Z"/>
      <path class="cls-1" d="M365.67,32.35l-46.97.91v10.72c2.89.02,7.24-.01,13.06-.1,10.09-.16,20.43-.53,31.02-1.11v20.33c-10.59-.39-21.68-.53-33.25-.43-4.78.04-8.39.11-10.83.2v25.43h-19.9c.45-13.12.67-25.39.67-36.82s-.22-23.7-.67-36.8l66.88-1.75v19.41Z"/>
      <path class="cls-1" d="M393.32,46.59c2.51-10.6,8.76-16,18.82-16.2,1.75-.03,3.45.07,5.08.32l-2.91,23.71c-4.35-1.85-7.91-2.75-10.67-2.72-3.42.04-5.93,1.27-7.55,3.66-1.61,2.4-2.42,5.58-2.42,9.57v-.11l-.09,6.92c0,4.96.12,10.48.36,16.56h-21.24c.47-9.99.71-19.43.71-28.31s-.24-18.39-.71-28.51c3.89.13,6.87.18,8.94.14,2.19-.04,5.19-.21,8.99-.49l2.68,15.46Z"/>
      <path class="cls-1" d="M428.22,20.84c-1.86-2.15-2.79-4.99-2.79-8.52s.93-6.35,2.79-8.66c1.86-2.32,4.73-3.54,8.59-3.65s6.53.96,8.5,3.21c1.98,2.26,2.97,5.09,2.97,8.51s-.96,6.47-2.88,8.72c-1.92,2.25-4.78,3.41-8.6,3.5s-6.73-.95-8.59-3.1ZM426.16,88.31c.43-11.38.64-20.78.64-28.2,0-8.83-.24-18.73-.73-29.67l22.12-.44c-.5,10.62-.74,20.59-.74,29.91,0,7.83.22,17.3.65,28.4h-21.94Z"/>
      <path class="cls-1" d="M499.59,48.43c-5.88-.36-11.24-.61-16.06-.76l-.1,11.46c0,3.89.74,6.93,2.24,9.12,1.49,2.19,4.15,3.27,7.97,3.25,1.47,0,2.87-.16,4.22-.46-.26,2.68-.38,5.4-.38,8.14,0,1.3.06,4.27.19,8.9-2.81.58-5.17.94-7.09,1.08-1.91.14-4.39.22-7.43.21-7.4,0-12.61-2.03-15.65-6.08-3.04-4.04-4.56-9.67-4.56-16.9l.09-18.14c-2.94.18-5.99.44-9.16.77v-18.94c3.23-.06,5.98-1.3,8.23-3.7,2.25-2.41,3.6-5.27,4.04-8.57l25.79-.61c-3.25,5.13-6.84,9.24-10.77,12.35l18.44-.36v19.23Z"/>
      <path class="cls-1" d="M548.82,69.09c6.63-.34,11.52-.55,14.66-.65-.54,3.92-.8,10.54-.8,19.86h-56.74s0-18.29,0-18.29c2.77-1.76,5.77-3.92,9-6.5,3.24-2.58,7.43-5.97,12.58-10.19,2.74-2.37,5.03-4.27,6.87-5.68-4.45.13-10.45.47-17.99,1-5.11.36-8.59.59-10.46.68,0-9.58-.19-16.4-.58-20.46l57.32-1.13v18.63c-4.14,3.08-8.96,6.87-14.46,11.35-7.99,6.39-13.14,10.43-15.5,12.13,5.38-.18,10.74-.43,16.1-.76Z"/>
      <path class="cls-1" d="M616.91,68.66c6.93-.34,12.04-.57,15.32-.66-.56,4.01-.84,10.78-.84,20.3h-59.27s0-18.69,0-18.69c2.89-1.8,6.02-4.01,9.4-6.64,3.38-2.63,7.76-6.1,13.14-10.42,2.87-2.43,5.26-4.36,7.18-5.81-4.65.14-10.92.48-18.79,1.03-5.34.37-8.97.6-10.92.7,0-9.79-.2-16.76-.61-20.9l59.88-1.18v19.05c-4.32,3.15-9.36,7.02-15.11,11.6-8.34,6.54-13.73,10.66-16.2,12.4,5.62-.18,11.23-.44,16.82-.78Z"/>
      <path class="cls-1" d="M711.49,24.81l-2.53,6.79c-6.95,19.68-14.19,38.58-21.73,56.7-3.9,9.22-9.51,16.59-16.83,22.1-7.28,5.48-16.37,8.05-27.23,7.72-1.34-6.31-2.44-11.22-3.32-14.75-.88-3.53-2.02-7.07-3.42-10.63,3.85.99,7.47,1.49,10.86,1.5,5.51.01,9.9-1.24,13.17-3.75-2.56-8.16-5.57-16.91-9.04-26.25-3.46-9.32-8.46-21.97-14.98-37.93l25.09-.49c.85,3.8,2.03,8.21,3.53,13.22,1.5,5.02,3,9.86,4.5,14.51.43,1.45,1.13,3.64,2.09,6.58.97,2.94,1.74,5.4,2.31,7.39l2.8-9.1c5.4-16.72,8.6-27.76,9.62-33.09l25.12-.49Z"/>
    </g>
  </g>
</svg>