<?xml version="1.0" encoding="UTF-8"?>
<svg id="Camada_2" data-name="Camada 2" xmlns="http://www.w3.org/2000/svg" xmlns:xlink="http://www.w3.org/1999/xlink" viewBox="0 0 729.16 626.76">
  <defs>
    <style>
      .cls-1 {
        fill: none;
      }

      .cls-1, .cls-2 {
        stroke-width: 0px;
      }

      .cls-2 {
        fill: #000463;
      }

      .cls-3 {
        clip-path: url(#clippath);
      }
    </style>
    <clipPath id="clippath">
      <rect class="cls-1" x="36.35" y="150.27" width="656.47" height="326.23" transform="translate(-111.08 243.59) rotate(-32.33)"/>
    </clipPath>
  </defs>
  <g id="Camada_6" data-name="Camada 6">
    <g class="cls-3">
      <path class="cls-2" d="M112.3,347.85c.96-.45,2.08-1.62,2.82-.7,1.92,2.05,3.19,3.57,3.94-.63.33-1.45,1.3-2.84,2.24-4.06,2.47-2.96,5.39-3.25,7.71-.07,1.69,2.18,3.57,2.7,5.31,1.76,3.76-1.91,8.01-.1,11.96-2.44,3.35-1.82,6.34-3.71,8.64-6.71.42-.57.91-1.51,1.42-1.68,6.35-.76,10.5-5.71,15.77-8.43,4.49-2.22,7.71-5.96,11.18-9.56,5.71-5.94,13.01-10.1,18.19-16.63,12.17-6.77,22.04-16.9,34.14-23.79,4.58-2.59,10.05-3.26,13.81-6.88,2.04-1.92,6.02-.55,6.66-4.68.35-2.39,4.98-2.69,4.16-6.67-.33-1.5,2.26-1.58,3.86-1.51,1.42.04,1.91-.9,1.8-2.07-.12-1.16-1.16-1.59-2.3-1.18-.51.17-.89.56-1.4.73-.74.31-1.5.33-1.99-.45s-.15-1.46.45-1.99c.37-.39.95-.45,1.33-.84,3.55-2.71,8.39-2.67,11.62-6.89,2.55-3.33,7.75-4.44,10.98-7.42,5.31-4.61,11.35-7.81,17.5-10.61,5.41-2.49,9.17-6.11,13.01-10.1,1.12-1.17,2.3-1.77,3.98-2.05,2.78-.51,6.17-.8,7.99-2.57,7.63-7.32,18.38-9.46,26.29-16.33,1.41-1.21,3.31-1.63,4.05-3.65.55-1.59,1.71-1.71,3.04-.84,2.15,1.43,4.6-.58,4.69-1.42.41-6.47,6.06-5.39,9.57-6.21,5.64-1.39,9.86-4.53,14.05-7.96,3.26-2.69,6.72-5.81,10.46-6.78,7.69-2.07,13.44-6.96,19.8-11.14,6.58-4.32,10.37-12.31,17.96-14.78,7.7-2.55,13.56-8.74,21.64-10.44,1.68-.29,3.67-1.55,4.65-2.95,3.57-4.9,9.94-6.61,13.37-11.73.72-1.08,2.09-2.1,3.15-2.14,5.1-.28,8.64-3.76,12.45-6.33,5.32-3.37,11.4-5.04,16.74-8.12,5.57-3.21,11.28-6.21,17.95-6.71,1.35-.08,1.46-1.39,2.23-1.87,2.56-2.09,4.51-6.11,8.93-3.79,2.09-3.81,7.69-2.08,9.48-5.38,2.54-4.56,6.13-4.04,9.98-3.84,1.31.11,2.71.61,3.05-1.31.28-1.27-1.77-2.3-.69-3.29.38-.39,2.19,1.25,3.43,1.25,2.84.07,5.78.07,8.23-1.95,3.71-2.96,7.69-2.07,11.97-1.68,4.1.35,8.45-.38,10.81,4.33.38.85,1.68,1.42,2.69,1.56,6.78,1.14,7.69,8.95,12.97,11.66.23,4.04,3.47,6.96,4.33,10.76.43,1.9,1.12,3.48,2.03,4.92.56.89,1.3,1.81.88,2.86-1.87,5.38-1.38,10.81-.42,16.25.39,2.08-.66,3.36-2.44,4.49-4.47,2.99-5.55,8.64-9.7,11.89.7,4.05-1.5,6.69-4.4,8.99-.11.07-.01.47-.17.72-2.38,3.83-2.38,8.5-3.86,12.54-.93,2.45,1,4.02,2.31,5.37,2.03,1.97,3.4,3.9,4.46,6.8,2.13,5.32,5.51,10.17,9.03,14.77,2.05,2.74,5.67,3.56,8.99,4.4,5.21,1.36,5.84,2.36,4.33,7.81-.95,3.4,1.06,4.61,2.94,6.37,4.16,3.88,3.64,7.47-1.14,9.72-2.65,1.21-4.67.47-5.7-2.14-.31-.73,0-1.71-.35-2.26-2.37-4.24-3.74-9.58-10.06-9.77-.47-.01-.98-.32-1.48-.62-2.05-1.04-3.34-3.32-5.96-3.53.33,2.74,2.59,4.58,3.69,6.82,3.93,7.92,8.88,15.02,15.07,21.35,2.24,2.31,5.04,3.79,7.21,5.99,2.88,2.83,3.33,8.44.86,11.41-1.53,1.75-4.95,1.73-6.02-.69-2.35-5.18-7.4-7.27-10.83-10.99-5.61-5.92-12.7-10.74-14.6-19.63-.98-4.5-5.44-7.11-8.27-10.13-4.61-4.84-8.16-10.2-11.78-15.67-3.54-5.36-6.61-11.18-11.6-15.63-1.74-1.53-3.28-2.73-5.39-1.4-2.11,1.33-5.21,2.06-3.85,5.69.17.51-.24,1.09.04,1.53.31.74.55,1.36-.08,2.08-.53-.6-1.21-.94-1.63-1.61-1.26-2-2.12-4.09-3.35.1-.79,2.67-2.73,4.52-5.82,3.06-2.24-1.07-4.38.44-4.73,1.6-1.08,3.94-7.4,3.76-6.65,8.87.13.69-.94,1.22-1.84,1.01-.18-.04-.47-.01-.76.02-4.78.54-5.86,6.19-9.7,7.23-3.96,1.11-6.94,2.53-9.42,5.96-1.76,2.36-3.47,5.3-6.67,6.39-1.66,6.95-8.77,9.43-12.43,14.7-.15.25-.12.54-.34.68-2.89,2.3-7.03,3.37-6.96,8.13-4.6-1.12-3.14,3.38-4.85,5.09-.6.54-4.1,4.31-4.99,4.87-1.33.84-2.44,1.54-2.16,3.69.32,1.97-.86.85-1.5.33-.75-.45-1.84-.7-2.11.09-1,3.58-3.96,2.82-6.33,3.23-1.28.19-2.65-.02-3.2,1.56-.95,2.93-3.73,2.2-5.71,2.99-2.61,1.03-6.63.32-6.74,5.04-.07,1.6-2.27,2.06-3.42,2.94-1.41,1.21-3.31,1.63-3.55,3.96-.36,2.87-1.81,4.25-4.79,3.96-1.31-.1-2.05.68-2.18,1.69-.25,2.8-2.1,4.28-4.31,5.21-2.21.93-1.6,2.87-1.78,4.54-1.41-.5-2.43-1.88-4.25-.57-2.81,1.93-6.52,3.19-8.5,5.69-3.75,4.86-9.06,7.75-13.52,11.5-4.6,4-7.5,9.25-12.13,12.96-.92.74-1.68,2-2.86,2.59-8.09,3.88-12.6,11.24-18.06,17.8-4.5,5.64-9.71,10.65-13.39,16.86-.95,1.69-3.34,2.58-5.18,3.59-7.08,4.01-12.75,9.77-18.16,15.69-4.3,4.74-8.92,9.21-13.53,13.69-.74.78-1.95,1.08-2.34,1.94-3.51,6.72-10.11,10.28-15.6,14.84-3,2.37-2.46,7.15-6.71,8.28-3.48,7.01-10.03,11.62-14.44,18.14-4.03,6.13-8.58,11.95-14.08,16.98-1.89,1.67-1.87,5.38-4.99,6.58-.22.14-.27.8-.35,1.16.47,0,.95.02,1.53-.04,1.82-.06,3.57-.24,5.16-1.4,1.97-1.56,5.04-2.1,4.14-5.72,2.75,2.14,4.98.27,6.83-1.22,7.53-6,15.94-10.86,24.24-15.65,5.24-3,10.17-6.75,15.64-9.13,6.21-2.69,11.58-6.71,18.18-8.56,2.64-.74,5.48-2.38,7.52-4.3,6.15-6.22,13.03-11.04,21.64-13.39.51-.17.89-.56,1.33-.84,12.79-8.72,27.62-14.23,40.07-23.5,5.26-3.95,12.4-4.43,17.17-9.16.48-.46,1.54-.51,2.26-.34,5.76,1.01,10.6-1.89,15.66-3.7,10.31-3.58,20.91-5.47,32.01-4.12,2.03.27,3.38,1.43,3.37,3.61.03,2,.59,4.12-.07,6.25-.75,2.49-1.68,4.94-.11,7.67.77,1.22-2.61,10.34-4.44,12.12-4.13,4.01-4.15,7.91-.69,12.39,2.44,3.11,3.95,6.97,6.49,10.01,4.1,5.01,4.81,12.01,10.09,16.43,2.38,2.06,1.08,4.9-.21,7.27-.45.75-1.71,1.7-2.79.99-3.66-2.34-8.39-3.69-9.21-8.91-.22-1.57-1.13-3.01-1.39-4.4-1.28-7.41-7.43-11.75-11.26-17.55-1.47-2.33-3-2.29-4.95.03-1.57,1.93-2.94,4.19-4.44,6.22-2.77,3.47-3.36,6.94-.69,10.68,1.3,1.81,1.91,3.76.77,5.88-.8,1.44-2.06,2.39-3.7,2.49-1.53.04-2.04-1.5-2.67-2.5-.28-.44-.34-1.03-.44-1.43-2.24-6.97-6.08-8.88-12.64-5.5-5.56,2.74-11.36,4.86-17.09,7.09-1.47.62-2.97.95-4.5.98-5.1.28-9.68,1.63-13.79,4.69-2.03,1.45-4.28,3.79-6.37,0-4.23.66-8.56.45-12.37,3.02-5.25,3.48-10.57,6.85-16.17,9.77-6.04,3.2-11.66,7.07-17.85,10.06-2.76,1.28-5.87,3.72-7.75,6.15-2.97,3.89-7.73,5.2-11.11,8.43-4.62,4.48-11.18,6.61-17.41,8.54-2.05.68-4.25,1.14-5.31,2.9-2.38,3.83-6.22,6.11-9.92,7.37-17.09,5.85-31.18,16.94-46.6,25.92-5.13,2.94-9.56,7.45-15.77,8.43-2.55.38-3.2,3.27-4.88,4.8-1.56,1.46-5.3-.53-5.12,4.17.06,2.29-4.61,1.05-6.48,3.01-1.16,1.36-3.06,1.78-3.8,3.8-.38.86-1.68,2-2.23,1.87-5.1-1.43-7.8,3.85-12.18,4.3-1.16.12-2.35,1.18-3.39,1.99-3.75,3.15-4.73,1.6-10.03,4.02-6.65,2.97-11.92-.68-17.74-.57-6.18.04-6.95.05-6.23,6.58.02.77.4,1.61-.45,1.99-.85.38-1.41-.03-1.91-.81-.7-1.11-1.07-2.43-2.48-2.93-1.59-.55-1.2-1.41-.06-1.82,3.85-1.51,1.86-4.9,2.61-7.4.27-.8-.34-1.03-1.1-1.48-5.95-3.53-7.49-6.43-8.44-15.3.32.26.75.45,1.14.83.08-.36.05-.66.2-.9-.4.1-.92.27-1.39.26-.94-1.73-2.36-.06-3.52-.41-1.09-.24-2.77.05-2.17-2.2.43-1.52,1.11-2.41,2.73-1.57,3.24,1.68,3.88.49,2.71-2.33-.76-1.69-2.07-3.04-.14-4.88.86-.85,1.84-2.25,1.79-3.31-.15-1.46-1.82.07-2.35-.53-.6-.71.35-1.16.98-1.4,1.98-.79,4.71-.65,2.28-4.24-.98-1.55-.23-4.04-.44-6.09-.5-4.96,1.3-8.74,5.47-11.22,4.61-2.77,7.97-6.29,9.59-11.81.95-3.4,2.79-7.36,7.88-7.17,6.5.23,9.9-4.71,12.26-9.31,2.67-5.1,5.77-8.78,10.92-10.95.73-.31,1.58-.69,1.92-1.37,3.27-6.11,9.61-9.34,13.78-14.77,4.73-6.25,11.04-11.49,16.66-17.07,2.57-2.56,5.21-5,7.64-7.79,11.81-13.22,23.16-26.92,35.36-39.77,7.46-7.83,14.21-16.29,22.06-23.75,1.56-1.45,2.55-3.32,3.68-4.97.68-.89-.02-2-.7-2.82-.92-.97-2.05-1.03-2.8-.25-4.96,5.16-11.54,7.77-17.61,10.68-10.68,5.21-17.78,14.83-28.16,20-2.25,1.11-3.65,3.55-4.49,5.17-2.48,5.15-6.81,7.88-11.38,10.46-7.37,4.04-12.49,11.16-20.25,14.84-2.25,1.11-4.08,3.36-7.06,3.07-.65-.05-1.61.4-2.09.86-5.59,7.11-14.17,9.74-21.06,15.04-1.26.95-2.55,1.61-3.6,2.9-4.24,5.32-4.31,5.21.34,10.34.53.59.84,1.33,1.26,1.99.56.89,1.08,1.95-.14,2.73-.66.42-1.41-.03-1.91-.81-.54-.6-1.17-1.12-1.79-1.35-.25-.15-1.1.23-1.25.48-.26.32-.13,1.02-.03,1.42.03.29.17.52.42.67,2.47,1.7,5.34,3.29,4.2,7.12-3.52-.41-3.76-3.98-5.72-5.85-1.06-1.19-1.57-2.73-2.64-3.92-2.83-3.49-4.49-3.67-8.52-1.44-8.04,4.46-14.98,10.41-22.31,15.99-1.97,1.56-1.8,3.78-2.75,5.46-3.3,5.82-8.92,9.69-12.43,15.17-1.44,2.15-4.1.88-5.62,2.16-3.56,2.72-7.81,3.85-11.81,5.62-.95.45-1.96,1.55-2.76,1.28-6.5-1.94-13.35-1.48-19.56-3.45-1.88-.52-4.78-1.17-5.84-2.35-2.2-2.49-9.59-.45-6.74-7.22-2.3-2.89-3.27-6.63-6.49-8.78-.57-.41-1.83-1.17-1.68-1.42,1.63-4.29-1.02-7.74-1.58-11.57-.49-3.72,1.53-7.64,2.6-11.58.56-2.06,1.77-4.07.8-6.09-1.04-2.13-.65-3.47,1.38-4.44,1.62-.87,2.2-2.17,1.44-3.86-1.51-3.86-.92-7.34,1.24-11.03,1.71-2.94,1.68-6.65.31-9.82-1.38-3.16-1.02-4.79,2.67-5.1.76-.02,1.4-.73,2-1.26,1.81-1.3,1.67-3.23-.56-4.3-1.11-.53-2.48.49-3.77-.56-1.35-1.16-1.17-4.06.09-3.78,3.94,1.08,3.92-2.63,5.85-4.01,1.81-1.31,2.17-4.17,5.99-2.55,2.52,1.04,4.93-2.5,5.69-6.7.84-5.04,2.48-6.38,7.15-5.62.83.09,1.52.44,2.35.53q4.02.72,4.82-3.67c.13-1.02.13-2.25,1.51-2.51.8-.2,1.38.22,2.02.74.92.97,1,3.55,2.96,2.47,1.4-.73,2.39-2.6,3.12-4.15.23-.61-.83-1.8-1.28-2.76l-.42-.66-.75.78ZM587.72,179.45c1.68,2.66,3.26,5.39,5.05,7.98,1.86,2.7,8.55,6.39,8.3,5.76-1.16-3.3-1.44-6.69-4.39-9.64-3.81-3.8-9.41-6.77-9.84-13.33-.13-1.93-2.23-2.78-3.84-3.62-.87-.39-1.5-1.38-2.17-2.2-.65,1.19.65,1.76.74,2.64-.01,5.13,3.8,8.46,6.14,12.41ZM33.09,392.88c.32.26,1.39-.26,2.01-.5.33-.21.57-.82.76-1.26-3.1-1.46-1.76-4.01-1.7-6.37.02-.95-.79-1.98-1.87-2.23-1.45-.33-2.31.53-3.06,1.78-1.18,2.3.27,3.87,1.39,5.64.89,1.15,1.59,2.26,2.48,2.93ZM244.09,230.44c.98-1.4.64-2.43-.39-3.32-1.29-1.05-2.5-.28-3.36.58-1.67,1.52-1.61,6.29.22,7.46.32.26.95.02,1.42.03.65-1.66,1.13-3.36,2.11-4.75ZM445.03,337.76c-.38.86-1.52,1.27-2.27,2.05-.53.64-.34,1.92.25,1.87,2.15-.28,4.27-2.09,6.51.22.32.26,1.08-.99.77-1.73-.31-.74-.84-1.33-.35-.55-2.02-3.69-3.15-5.46-4.9-1.86ZM281.39,202.33c1.08,1.95,3.41,2.19,5.22.89,1.48-1.1.67-2.13-.03-3.24-1.04-2.13-2.57-2.1-4.31-.68-1.18.59-1.6,1.64-.87,3.04ZM267.68,186.8c1.08-1,.1-2.55-1.13-3.01-1.41-.51-2.74.33-2.95,1.71-.27,2.03-.06,4.08.15,6.12.03.29.82.56,1.18.64.18.04.44-.28,1.07-.52-1.22-2.18,0-3.42,1.68-4.94ZM310.07,180.45c-.95-1.26-2.03-1.5-3.22-.44-1.79,1.6-2.01,3.44-.46,5.41.53.59,1.21.94,2.03.27.66-1.66,3.37-2.76,1.65-5.23ZM273.57,208.36c-.48.46-.8,1.44-.09,2.07.64.52,1.84.7,2-.03.61-2.71,2.27-2.05,3.96-1.58.98.31,2.17.48,2.46-.78.52-1.88-1.08-1.96-2.31-2.42-1.77-.59-2.82.7-3.86,1.51-.96.45-1.69.76-2.18,1.22ZM37.16,403.49c-.92.27-.92,4.93.02,5.42.5.3,1.49.14,2.15-.28,1.84-1.01,2.21-2.64,1.45-4.33-1.15-.83-2.37-1.3-3.62-.81ZM293.97,219.51c.7,1.11,1.22,2.17,2.03,3.21.56.89,1.35,1.63,2.41,1.11,1.07-.52,1.13-1.65,1.34-2.55.17-1.2-.43-1.9-1.47-2.33-1.66-.66-2.95,0-4.35.74l.04-.18ZM571.61,186.86c-2.92.29-4.57,3.82-3.03,6.73.28.44.71.64,1.1,1.01.75-2.5,1.57-4.87,2.32-7.37.64-.71.48-.46-.39-.37ZM41.83,355.21c-.18-.04-.38.39-.41.57.52,2.78,3.64,2.81,4.91,4.81.07.11.99-.16,1.25-.48.26-.32.2-.9.18-1.67-2.36-.06-3.05-3.34-5.93-3.23ZM55.28,358.8c-.66-1.29-1.71-1.72-3.1-.99-1.29.66-1.72,1.71-.98,3.11.66,1.29,1.59,1.78,3.32.84,1.07-.52,1.5-1.56.76-2.96ZM112.3,347.85l-.84-1.33c-.9-1.92-2.23-2.78-4.19-1.23-.92.74-.95,1.69-.49,2.65,1.18,2.36,2.65,1.73,4.24.57.44-.28.82-.67,1.26-.95.07.11.03.29.03.29ZM302.61,188.28c-.59.53-1.12,1.17-.34,1.92.96.78,2.26,1.36,3.44.77,1.18-.59.66-1.66.21-2.61-1.18-1.12-2.27-.89-3.31-.08ZM293.93,219.69c-.42-.66-.88-1.15-1.3-1.81-.56-.89-1.3-1.81-2.3-1.18-1.44.91-1.63,2.58-.89,3.98.59,1.18,1.7.48,2.47-.01.67-.42,1.4-.73,1.96-1.08l.07.11ZM50.73,366.81c-.35-.55-1.24-1.23-1.72-1.24-1.21.3-1.52,1.27-.82,2.38.49.78.9,1.91,2.22,1.55,1.33-.84.99-1.87.32-2.69ZM50.84,377.29c.64.52,1.43.8,1.89.04.68-.89.34-1.92-.56-2.6-.57-.41-1.26-.76-1.96-.15-.53,1.11-.27,2.03.63,2.71ZM328.98,200.76c.7,1.11,1.83,1.17,2.5.28.68-.89-.02-2-.74-2.64-.53-.59-1.22-.94-1.92-.34-.85.85-.41,1.81.15,2.69ZM269.39,218.92c.57.41,1.45.33,1.9-.43.19-.43.13-1.01-.08-1.35-.53-.6-1.26-.76-2.03-.27-.45.75-.48,1.7.2,2.04ZM294.61,206.53c-.26.32-.39.86-.28,1.27.2.8.99,1.08,1.66.66.74-.31.9-1.03.48-1.7-.53-.59-1.14-.83-1.85-.22ZM61.26,412.13c-1.18.59-1.13,1.65-.35,2.39.46.48,1.32.87,2.07.08.52-.64.83-1.14.34-1.92-.6-.71-1.33-.87-2.06-.56ZM563.11,187.89c.38.85,1.1,1.01,1.88.52.33-.21.45-.75.64-1.18-.72-.17-1.52-.44-2.49-.75-.05.65-.17,1.2-.03,1.41ZM571.21,179.35c-.48.46-.83,1.15-1.31,1.61.18.04.54.13.73.16.76-.02,1.46-.15,1.52-1.27-.25-.15-.83-.56-.94-.49ZM608.75,159.47c-.33.21-.45.75-.83,1.14.47.01,1.01.13,1.35-.08s.45-.75.72-1.07c-.36-.08-.9-.2-1.24,0ZM613.43,175.44c.07.11.43.19.68.34.01-.47.09-.84,0-1.24-.14-.22-.61-.23-1.05-.43.1.4.16.99.37,1.32ZM303.7,217.23c.32.26.75.45,1.15.83.08-.36.12-.54.2-.9-.48-.01-.99.16-1.35.08ZM179.83,558.25c.01-.47,1.62-.87.1-1.31-.01.47.09.87.08,1.35l-.18-.04ZM180.01,558.29c-.19.43-1.62.87-.03,1.41.01-.47-.09-.87-.15-1.46l.18.04ZM303.6,217.3c-.33-.26-.76-.45-1.08-.72l-.2.9c.51-.17.99-.16,1.28-.19ZM464.97,336.16c.19,1.28,1.47,2.32,2.35,3.48,1.04-.81,2.14-1.52,3.18-2.33.82-.68,1.95-1.08,2.23-1.87.31-.98.11-3.02-.51-3.25-1.4-.51-3.05-.4-5.3-.53-.85,2.09-2.08,3.33-1.96,4.5ZM491.45,365.49c-1.11,2.41-1.61,5.06-2.18,7.59,1.02.13,2.79.72,3.05.4,1.5-2.03,2.57-4.27,4.73-7.96-3.02-.11-5.37-.63-5.6-.02ZM484.72,350.19c1.56.25,3.16.33,4.8.22.29-.03.37-1.63.46-2.46-1.56-.25-3.19-.62-5.47-1.04.11,1.64.03,3.24.21,3.28ZM500.3,383.63c.03-1.41.54-2.82.06-4.07-.24-.63-2.37-1.3-2.81-1.02-.86.85-1.25,2.19-2.02,3.92,2.17.49,3.44.77,4.78,1.17ZM470.82,325.78c-.67-.82-2.27-.89-3.43-1.25-.24,1.09-1,2.34-.58,3.01.38.85,1.83,1.17,4.88,2.81-.46-2.19-.2-3.75-.87-4.57ZM481.62,339.9c1.03.9,2.48,1.22,3.67,1.87.17-1.2.9-2.75.37-3.34-.85-.86-2.34-1-4.54-1.78.22,1.57.04,2.76.5,3.25ZM493.36,341.77c-.42-.66-1.95-.63-3.04-.87-.24,1.08-.93,2.45-.51,3.11.49.78,1.87.99,3.52,1.65.12-1.78.55-3.3.02-3.89ZM505.55,353.93c1.42.03,2.8.25,4.12-.12.4-.1.92-1.98.53-2.36-.99-1.08-2.36-1.76-4.01-2.89-.37,3.34-.5,4.35-.64,5.37ZM488.23,381.97c-1.23-.46-2.71-.61-3.98-.89-.09.84-.6,2.24-.28,2.5.96.79,2.16.96,4.18,1.7.12-1.78.37-3.34.08-3.31ZM492.72,352.28c-.03-.29-1.73-.77-2.36-.53-.73.31-.98,1.39-1.54,2.22,1,.61,1.9,1.28,3.47,2.3.3-1.74.65-2.89.42-3.99Z"/>
    </g>
  </g>
</svg>