<?xml version="1.0" encoding="UTF-8"?>
<svg id="Camada_1" data-name="Camada 1" xmlns="http://www.w3.org/2000/svg" version="1.1" viewBox="0 0 500 500">
  <defs>
    <style>
      .cls-1 {
        fill: #000463;
        stroke-width: 0px;
      }
    </style>
  </defs>
  <path class="cls-1" d="M500.6,104.4c-18.5,8.2-38.3,13.7-59.1,16.2,21.2-12.7,37.6-32.9,45.2-56.9-19.8,11.8-41.9,20.3-65.3,24.9-18.8-20-45.5-32.5-75-32.5-56.8,0-102.9,46-102.9,102.8s.9,15.9,2.7,23.4c-85.5-4.3-161.2-45.2-212-107.5-8.9,15.2-13.9,32.9-13.9,51.7,0,35.7,18.1,67.1,45.7,85.6-16.9-.5-32.7-5.2-46.6-12.9v1.3c0,49.8,35.5,91.4,82.5,100.9-8.6,2.3-17.7,3.6-27.1,3.6s-13.1-.6-19.4-1.9c13.1,40.8,51.1,70.6,96.1,71.4-35.2,27.6-79.5,44-127.7,44s-16.5-.5-24.5-1.4c45.5,29.2,99.5,46.2,157.6,46.2,189.1,0,292.6-156.7,292.6-292.5s-.1-8.9-.3-13.3c20.1-14.5,37.5-32.6,51.3-53.2Z"/>
</svg>