<?xml version="1.0" encoding="UTF-8"?>
<svg id="Camada_1" data-name="Camada 1" xmlns="http://www.w3.org/2000/svg" version="1.1" viewBox="0 0 500 500">
  <defs>
    <style>
      .cls-1 {
        fill: #000463;
        stroke-width: 0px;
      }
    </style>
  </defs>
  <path class="cls-1" d="M449,145c-4-22-23-38-45-43-33-7-94-12-160-12s-128,5-161,12c-22,5-41,20-45,43-4,25-8,60-8,105s4,80,9,105c4,22,23,38,45,43,35,7,95,12,161,12s126-5,161-12c22-5,41-20,45-43,4-25,9-61,10-105-2-45-7-80-12-105ZM190,320v-140l122,70-122,70Z"/>
</svg>