<?xml version="1.0" encoding="UTF-8"?>
<svg id="Camada_1" xmlns="http://www.w3.org/2000/svg" viewBox="0 0 1854.01 1507.33">
  <defs>
    <style>
      .cls-1 {
        fill: #fff;
      }
    </style>
  </defs>
  <path class="cls-1" d="M583.07,1507.33c699.66,0,1082.28-579.85,1082.28-1082.68,0-16.47-.34-32.86-1.08-49.18,74.45-53.89,138.7-120.61,189.74-197.05-68.16,30.31-141.5,50.71-218.44,59.91,78.54-47.11,138.82-121.63,167.27-210.47-74.67,44.31-156.36,75.55-241.54,92.37C1491.89,46.26,1393.07,0,1283.64,0c-210.06,0-380.4,170.41-380.4,380.47,0,29.86,3.34,58.9,9.87,86.77-316.14-15.91-596.48-167.33-784.09-397.57-33.79,58.07-51.56,124.07-51.51,191.26,0,132.02,67.15,248.56,169.27,316.75-60.41-1.85-119.49-18.17-172.27-47.59-.06,1.6-.06,3.15-.06,4.86,0,184.28,131.11,338.15,305.17,373.01-32.69,8.91-66.42,13.41-100.3,13.39-24.47,0-48.31-2.41-71.49-6.86,48.43,151.19,188.85,261.22,355.34,264.29-130.19,102.08-294.19,162.88-472.44,162.88-30.32.03-60.62-1.73-90.73-5.27,168.35,107.94,368.24,170.93,583.09,170.93"/>
</svg>