<?xml version="1.0" encoding="UTF-8"?>
<svg id="Camada_2" data-name="Camada 2" xmlns="http://www.w3.org/2000/svg" viewBox="0 0 192.1 59.36">
  <defs>
    <style>
      .cls-1 {
        fill: #fff;
        stroke-width: 0px;
      }
    </style>
  </defs>
  <g id="Camada_6" data-name="Camada 6">
    <g>
      <path class="cls-1" d="M1.54,57.38c-1.5-1.83-1.9-4.74-1.22-8.75.68-4.03,2.16-7.39,4.42-10.09,2.27-2.7,5.38-4.44,9.36-5.2,5.58-1.07,8.91.68,9.98,5.26-1.72,1.01-3.77,2.42-6.15,4.22-.3-1.18-.95-1.97-1.95-2.37s-2.07-.5-3.22-.28c-1.69.32-3.04,1.13-4.06,2.42-1.02,1.3-1.67,2.78-1.95,4.45-.31,1.81-.11,3.2.58,4.18s1.95,1.3,3.78.97c1.46-.27,2.68-.79,3.65-1.57.97-.78,1.78-1.89,2.41-3.33,1.28.73,2.95,1.52,5.01,2.35-1.36,2.92-3.16,5.11-5.42,6.57-2.25,1.46-4.59,2.41-7.02,2.85-3.96.71-6.69.15-8.19-1.68Z"/>
      <path class="cls-1" d="M27.08,52.64c-1.54-1.92-1.96-4.93-1.27-9.03.69-4.06,2.18-7.41,4.49-10.05,2.31-2.65,5.54-4.37,9.68-5.17,4.18-.8,7.05-.24,8.62,1.69,1.57,1.93,2,4.95,1.31,9.06-.71,4.17-2.23,7.58-4.56,10.21-2.33,2.63-5.59,4.32-9.78,5.07-4.12.74-6.94.15-8.49-1.78ZM41.34,45.15c1.05-1.14,1.76-2.74,2.11-4.81.34-2.02.15-3.45-.57-4.27-.72-.82-2.08-1.04-4.09-.66s-3.5,1.14-4.54,2.28c-1.05,1.15-1.74,2.73-2.08,4.74-.35,2.04-.16,3.46.55,4.28.71.82,2.06,1.05,4.04.69s3.53-1.12,4.58-2.26Z"/>
      <path class="cls-1" d="M78.86,21.69c-.8,3.97-1.58,8.21-2.35,12.71-.77,4.53-1.42,8.75-1.96,12.67l-9.98,1.8-3.48-17.77-2.72,18.88-7.07,1.27c.91-4.51,1.69-8.71,2.35-12.62.66-3.88,1.29-8.05,1.91-12.5l10.16-1.94,3.44,18.29,2.85-19.5,6.86-1.31Z"/>
      <path class="cls-1" d="M105.72,23.72c-2.99.45-5.89.92-8.71,1.43l-3.13,18.44-7.11,1.28,3.12-18.38c-2.82.55-5.69,1.16-8.63,1.83l1.25-7.37,24.46-4.68-1.26,7.45Z"/>
      <path class="cls-1" d="M122.37,38.47c-.14-1.29-.35-2.91-.62-4.85l-9.29,1.69-2.31,5.35-7.24,1.3,12.47-27.3,10.73-2.05,3.87,24.49-7.61,1.37ZM121.03,28.35c-.32-2.36-.65-4.72-1-7.08l-.31-2.19c-1.05,2.29-2.6,5.75-4.66,10.37l5.97-1.1Z"/>
      <path class="cls-1" d="M135.22,33.16c-1.72-1.92-2.21-5.01-1.49-9.27s2.36-7.88,4.89-10.77c2.54-2.9,6.05-4.78,10.55-5.64,6.32-1.21,10.12.6,11.39,5.45-1.94,1.09-4.25,2.62-6.93,4.57-.35-1.24-1.1-2.08-2.24-2.49s-2.36-.5-3.65-.26c-1.91.36-3.44,1.24-4.58,2.63-1.14,1.39-1.86,2.97-2.16,4.75-.33,1.92-.09,3.4.7,4.43s2.23,1.36,4.3.98c1.65-.3,3.03-.87,4.12-1.72,1.09-.84,1.99-2.03,2.7-3.57,1.46.76,3.37,1.57,5.72,2.43-1.5,3.12-3.53,5.47-6.07,7.05-2.54,1.58-5.18,2.62-7.93,3.11-4.49.81-7.59.25-9.31-1.68Z"/>
      <path class="cls-1" d="M190.79,7.74c-3.23.49-6.36,1-9.4,1.55l-3.25,19.15-7.66,1.38,3.24-19.09c-3.04.59-6.14,1.25-9.3,1.96l1.3-7.65,26.38-5.04-1.31,7.74Z"/>
    </g>
  </g>
</svg>