<?xml version="1.0" encoding="UTF-8"?>
<svg id="Camada_2" data-name="Camada 2" xmlns="http://www.w3.org/2000/svg" viewBox="0 0 46.59 46.59">
  <defs>
    <style>
      .cls-1 {
        fill: #c2074f;
        stroke-width: 0px;
      }
    </style>
  </defs>
  <g id="Camada_6" data-name="Camada 6">
    <path class="cls-1" d="M34.24.43l-5.69,3.15c-5.62,3.11-12.01,4.54-18.42,4.13l-6.49-.42c-2.69-.17-4.52,2.7-3.21,5.06l3.15,5.69c3.11,5.62,4.54,12.01,4.13,18.42l-.42,6.49c-.17,2.69,2.7,4.52,5.06,3.21l5.69-3.15c5.62-3.11,12.01-4.54,18.42-4.13l6.49.42c2.69.17,4.52-2.7,3.21-5.06l-3.15-5.69c-3.11-5.62-4.54-12.01-4.13-18.42l.42-6.49c.17-2.69-2.7-4.52-5.06-3.21Z"/>
  </g>
</svg>