<?xml version="1.0" encoding="UTF-8"?>
<svg id="Camada_2" data-name="Camada 2" xmlns="http://www.w3.org/2000/svg" viewBox="0 0 118.58 75.3">
  <defs>
    <style>
      .cls-1 {
        fill: #fff;
        stroke-width: 0px;
      }
    </style>
  </defs>
  <g id="Camada_6" data-name="Camada 6">
    <g>
      <path class="cls-1" d="M23.6,39.08c.48,4.15,1.07,8.57,1.78,13.27.7,4.7,1.43,9.07,2.18,13.1l-6.69,2.78-1.48-9.85-10.38,4.37,1.47,9.8-6.58,2.74c-.55-4.71-1.12-9.08-1.73-13.13-.61-4.05-1.33-8.36-2.18-12.94l6.56-2.82,1.47,9.8,10.37-4.41-1.48-9.85,6.67-2.87Z"/>
      <path class="cls-1" d="M33.89,59.35c-2.43-1.55-3.97-4.51-4.62-8.88-.65-4.32-.13-8.13,1.56-11.44,1.69-3.31,4.75-5.93,9.18-7.83s7.94-2.11,10.4-.56c2.47,1.56,4.03,4.52,4.69,8.9.67,4.45.14,8.33-1.59,11.63-1.72,3.3-4.84,5.89-9.34,7.76-4.42,1.84-7.84,1.98-10.28.42ZM47.46,47.94c.8-1.44,1.03-3.27.7-5.47-.32-2.15-1.04-3.56-2.15-4.2-1.11-.65-2.74-.51-4.88.4-2.12.91-3.58,2.08-4.36,3.53-.79,1.45-1.02,3.24-.7,5.39s1.04,3.58,2.14,4.23c1.1.65,2.71.53,4.84-.36,2.15-.9,3.62-2.07,4.42-3.51Z"/>
      <path class="cls-1" d="M84.24,12.99l6.44,26.18-7.83,3.26-3.38-19.13-.11,20.58-7.84,3.26-5.89-17.79,2.41,19.24-7.66,3.19-1.72-27.79,10.08-4.33,5.23,16.47-.37-18.57,10.65-4.58Z"/>
      <path class="cls-1" d="M100.82,27.63c7.79-3.32,13.46-5.85,16.97-7.57,0,1.1.08,2.2.22,3.32.13,1.11.33,2.51.58,4.18l-23.95,9.97c-.57-4.92-1.17-9.5-1.8-13.73-.63-4.23-1.4-8.74-2.29-13.52L114.45,0l1.03,6.87-16.71,7.13.54,3.62c.98-.39,2.44-1,4.37-1.82,3.27-1.39,6.65-2.9,10.14-4.55l.98,6.52c-3.54,1.33-6.94,2.69-10.21,4.07-1.93.81-3.38,1.44-4.36,1.88l.59,3.92Z"/>
    </g>
  </g>
</svg>