<?xml version="1.0" encoding="UTF-8"?>
<svg id="Camada_2" data-name="Camada 2" xmlns="http://www.w3.org/2000/svg" viewBox="0 0 164.23 85.82">
  <defs>
    <style>
      .cls-1 {
        fill: #fff;
        stroke-width: 0px;
      }
    </style>
  </defs>
  <g id="Camada_6" data-name="Camada 6">
    <g>
      <path class="cls-1" d="M13.7,3.66c2.77,1.05,4.57,2.7,5.38,4.95.82,2.25.98,5.03.49,8.37-.33,2.29-.83,4.16-1.5,5.6-.66,1.44-1.6,2.41-2.82,2.91s-2.78.39-4.69-.31l-4.37-1.61-1.01,6.91-5.19-1.9c.85-5.05,1.6-9.78,2.25-14.22.65-4.43,1.28-9.21,1.91-14.34l5.18,1.96v.04s4.36,1.65,4.36,1.65ZM10.2,17.06c1.16.43,2.04.67,2.65.72.6.05,1.05-.11,1.35-.47.29-.36.5-.97.63-1.83s.11-1.55-.04-2.06-.51-.95-1.06-1.33c-.56-.37-1.43-.78-2.62-1.23l-2.9-1.09-.9,6.2,2.9,1.08Z"/>
      <path class="cls-1" d="M22.43,33.11c-1.12-3.14-1.33-7.05-.65-11.73.67-4.63,1.94-7.96,3.81-10,1.86-2.04,4.38-2.45,7.54-1.25,3.17,1.2,5.29,3.37,6.38,6.51,1.09,3.14,1.3,7,.63,11.59-.68,4.67-1.94,8.01-3.77,10.03-1.84,2.02-4.34,2.45-7.53,1.28-3.15-1.16-5.29-3.3-6.41-6.43ZM33.53,31.18c.83-.85,1.42-2.44,1.76-4.77.33-2.27.24-4.1-.27-5.46-.51-1.36-1.52-2.33-3.05-2.91s-2.69-.42-3.52.44c-.84.86-1.42,2.44-1.76,4.72s-.25,4.15.26,5.51c.51,1.37,1.53,2.33,3.04,2.89s2.7.42,3.53-.43Z"/>
      <path class="cls-1" d="M58.02,36.2c-.79,1.32-1.93,2.08-3.42,2.25.1.47.17.83.2,1.09l2.01,9.85-5.49-2.01c-.29-2.32-.79-5.64-1.51-9.97l-2.98-1.11-1.3,8.95-4.81-1.76c.84-4.96,1.57-9.62,2.21-13.97s1.26-9.05,1.88-14.09l4.8,1.82v.04s4.15,1.58,4.15,1.58c2.72,1.03,4.49,2.58,5.32,4.65.83,2.07,1.04,4.52.62,7.37-.32,2.23-.88,4-1.68,5.32ZM48.52,24.68l-.64,4.4,2.74,1.02c1.15.43,2.02.68,2.63.76.61.08,1.05,0,1.32-.22.27-.22.45-.63.54-1.22s.04-1.04-.13-1.43c-.17-.39-.54-.76-1.12-1.11-.57-.35-1.44-.75-2.6-1.18l-2.74-1.03Z"/>
      <path class="cls-1" d="M78.61,36.68c-2.05-.91-4.06-1.74-6.02-2.5l-2.91,19.93-4.99-1.83,2.91-19.97c-1.99-.72-4.03-1.41-6.12-2.06l1.17-8.06,17.11,6.49-1.17,8Z"/>
      <path class="cls-1" d="M96.6,42.52l-10.65-4-.58,3.99c.66.28,1.66.66,3,1.16,2.3.86,4.64,1.66,7.03,2.39l-1.08,7.41c-2.34-1.05-4.83-2.07-7.47-3.05-1.1-.41-1.93-.7-2.5-.89l-1.38,9.45-4.65-1.71c.82-4.88,1.55-9.46,2.17-13.75s1.24-8.91,1.86-13.87l15.29,5.8-1.03,7.07Z"/>
      <path class="cls-1" d="M98.76,61.21c-1.03-3.02-1.22-6.79-.56-11.32.65-4.48,1.86-7.71,3.62-9.7,1.75-1.99,4.11-2.42,7.07-1.29,2.97,1.13,4.95,3.2,5.96,6.22,1.01,3.02,1.19,6.75.54,11.19s-1.85,7.76-3.58,9.73c-1.73,1.97-4.09,2.41-7.07,1.32s-4.95-3.13-5.98-6.14ZM109.17,59.23c.78-.83,1.34-2.37,1.67-4.62.32-2.2.25-3.96-.22-5.27-.47-1.31-1.42-2.24-2.85-2.77s-2.52-.38-3.31.46c-.79.84-1.35,2.37-1.67,4.58-.33,2.24-.25,4.01.22,5.32.47,1.31,1.42,2.23,2.84,2.76s2.53.38,3.32-.45Z"/>
      <path class="cls-1" d="M121.62,65.21c3.68,1.31,6.73,2.31,9.16,3-.35,1.2-.63,2.38-.83,3.53-.21,1.15-.43,2.56-.67,4.22l-13.4-4.91c.81-4.8,1.52-9.31,2.13-13.53.61-4.22,1.22-8.76,1.83-13.64l4.65,1.76-2.85,19.57Z"/>
      <path class="cls-1" d="M145.82,61.5c-1.46-.7-2.54-1.2-3.25-1.49l-1.85,12.66c.73.24,1.84.56,3.33.96l-1.07,7.36-10.9-4,1.08-7.39c1.42.68,2.51,1.18,3.25,1.48l1.85-12.69c-.75-.26-1.86-.58-3.33-.98l1.08-7.39,10.88,4.13-1.07,7.36Z"/>
      <path class="cls-1" d="M147.89,79.31c-.98-2.94-1.15-6.63-.5-11.06.64-4.38,1.8-7.55,3.49-9.51,1.69-1.96,3.95-2.39,6.78-1.32s4.74,3.09,5.7,6.04c.96,2.94,1.12,6.59.49,10.94s-1.8,7.6-3.46,9.54c-1.67,1.94-3.92,2.39-6.78,1.34-2.83-1.04-4.73-3.02-5.71-5.96ZM157.88,77.29c.75-.82,1.29-2.33,1.61-4.53.31-2.15.25-3.87-.2-5.15-.45-1.28-1.35-2.18-2.72-2.69-1.36-.51-2.41-.35-3.17.48-.76.83-1.3,2.33-1.61,4.49-.32,2.19-.25,3.92.2,5.2.45,1.28,1.36,2.17,2.71,2.67,1.37.51,2.43.35,3.18-.47Z"/>
    </g>
  </g>
</svg>