<?xml version="1.0" encoding="UTF-8"?>
<svg id="Camada_2" data-name="Camada 2" xmlns="http://www.w3.org/2000/svg" viewBox="0 0 1134.43 1134.3">
  <defs>
    <style>
      .cls-1 {
        fill: #befdf5;
        stroke-width: 0px;
      }
    </style>
  </defs>
  <g id="Camada_6" data-name="Camada 6">
    <g>
      <path class="cls-1" d="M546.45,557.36c13.26,4.84,20.59,14.14,21.58,29.14,5.83-13.51,15.75-19.72,29.89-20.08-7.94-2.98-14.14-7.94-17.73-15.63-3.73-7.94-3.73-15.88-.13-23.94,6.08-13.27,20.71-19.84,34.6-15.62,13.52,4.09,21.95,17.85,19.72,32.24-1.74,11.16-11.91,25.05-31.88,23.81,7.69,2.48,14.14,6.7,18.36,13.77,4.21,7.07,5.08,14.76,2.97,22.57-3.6,13.02-15.75,21.95-30.13,21.08-14.02-.86-23.82-10.91-27.29-28.77-3.72,8.43-9.3,14.51-17.86,17.49-6.44,2.35-12.9,2.48-19.35.12-14.76-5.33-20.96-19.22-19.72-30.01,1.86-16.37,11.9-25.05,30.88-27.28-17.24-8.19-24.31-21.95-19.34-37.09,4.71-14.01,18.97-22.32,33.11-19.47,15.25,3.22,24.31,16.62,23.32,30.51-1.25,15.88-14.39,27.78-31,27.16Z"/>
      <path class="cls-1" d="M453.8,575.47c0-15.13,12.15-27.16,27.29-27.16s27.53,12.27,27.16,27.28c-.25,15.5-12.03,27.04-27.41,27.17-15.01.25-27.04-12.16-27.04-27.29Z"/>
      <path class="cls-1" d="M555.5,643.43c-.13,14.89-12.53,27.29-27.53,27.04-14.63-.12-27.28-12.65-27.03-27.16.37-18.85,15.87-27.66,27.53-27.41,15.13.25,27.16,12.27,27.04,27.53Z"/>
      <path class="cls-1" d="M464.34,518.29c0-15.13,11.66-26.79,26.78-26.79s27.29,12.03,27.16,27.04c-.12,14.63-12.52,26.91-27.16,26.78-15.01,0-26.66-11.9-26.78-27.03Z"/>
      <path class="cls-1" d="M585.63,679.76c-15.25,0-27.28-11.9-27.16-27.03,0-14.64,12.53-26.91,27.16-26.91,15.01.12,26.79,12.02,26.79,27.03s-11.78,26.91-26.79,26.91Z"/>
      <path class="cls-1" d="M653.35,579.56c14.63.12,26.42,12.02,26.29,26.54-.12,14.64-12.4,26.79-27.03,26.54-16.87-.38-26.66-14.89-26.17-27.16.62-14.64,12.02-26.05,26.91-25.92Z"/>
      <path class="cls-1" d="M585.26,471.54c-.13,14.51-12.15,26.42-26.66,26.17-14.64-.25-26.79-12.53-26.42-27.16.37-17.12,15.25-26.3,26.91-26.17,13.89.25,26.78,12.27,26.17,27.16Z"/>
      <path class="cls-1" d="M663.02,575.22c-14.39-.13-26.3-12.03-26.17-26.3,0-14.63,12.4-26.78,26.91-26.66,14.51.13,26.17,12.15,26.04,26.91-.25,14.64-12.02,26.17-26.78,26.05Z"/>
      <path class="cls-1" d="M615.89,507.63c-14.63,0-26.29-11.78-26.29-26.54s11.78-26.29,26.17-26.42c14.51-.12,27.03,12.15,26.78,26.66-.5,16.49-13.64,26.66-26.66,26.3Z"/>
      <path class="cls-1" d="M471.16,606.97c14.02,0,25.79,11.66,25.79,25.67s-10.42,26.29-26.04,26.17c-14.76-.13-25.42-11.29-25.67-25.8-.38-14.38,11.66-26.04,25.92-26.04Z"/>
      <path class="cls-1" d="M643.05,638.09c14.26,0,25.3,11.04,25.3,25.3s-11.29,25.42-25.42,25.3c-13.52-.12-25.18-11.78-25.18-25.3s11.16-25.3,25.3-25.3Z"/>
      <path class="cls-1" d="M501.42,435.57c14.26,0,25.3,11.04,25.3,25.3s-11.28,25.42-25.3,25.42-25.18-11.66-25.3-25.3c0-14.14,11.16-25.42,25.3-25.42Z"/>
      <path class="cls-1" d="M697.99,491.14c0,14.02-10.67,24.8-24.55,24.93-14.02,0-25.18-11.04-25.18-24.93s11.54-24.93,24.93-24.93,24.68,11.16,24.8,24.93Z"/>
      <path class="cls-1" d="M543.1,700.1c0,13.65-11.16,24.93-24.81,24.81-13.39,0-24.8-11.29-24.55-24.68.25-13.77,10.79-24.43,24.68-24.68,13.39-.25,24.68,11.16,24.68,24.55Z"/>
      <path class="cls-1" d="M423.91,589.98c-13.65,0-24.93-11.29-24.81-24.93.13-13.39,11.41-24.43,24.93-24.31,13.27.12,24.31,11.16,24.43,24.43,0,13.27-11.28,24.68-24.55,24.81Z"/>
      <path class="cls-1" d="M458.39,508.13c0,13.77-10.79,24.31-24.68,24.31-13.27-.12-24.43-11.28-24.19-24.43.13-13.51,11.41-24.68,24.93-24.43,14.02.25,24.56,12.27,23.94,24.55Z"/>
      <path class="cls-1" d="M575.59,734.95c-12.28.62-24.31-10.04-24.55-24.19-.13-13.39,11.03-24.8,24.55-24.8s24.8,12.15,24.43,24.68c-.38,13.77-10.79,24.31-24.43,24.31Z"/>
      <path class="cls-1" d="M686.71,615.77c0-13.27,10.67-23.69,23.81-23.69s24.19,10.92,24.06,24.06c0,12.78-11.28,23.94-24.06,23.94-13.02-.13-23.81-11.16-23.81-24.31Z"/>
      <path class="cls-1" d="M568.77,437.68c-13.15-.12-23.57-10.67-23.57-24.06s11.17-24.19,24.19-23.94c12.78.12,23.94,11.54,23.69,24.19-.12,13.27-11.03,23.94-24.31,23.81Z"/>
      <path class="cls-1" d="M720.69,582.54c-13.27,0-23.94-10.79-23.94-24.06,0-10.67,8.19-23.57,24.06-23.69,13.77,0,23.57,10.42,23.82,23.81,0,13.15-11.04,23.94-23.94,23.94Z"/>
      <path class="cls-1" d="M626.31,447.6c-10.91.25-23.69-8.19-24.06-24.06-.25-12.65,10.79-23.82,23.56-23.69,15.88.12,24.31,13.02,24.19,23.94,0,13.02-10.54,23.69-23.69,23.81Z"/>
      <path class="cls-1" d="M390.3,622.84c0-13.39,10.42-23.56,23.81-23.43,13.02.12,23.57,10.79,23.44,23.68-.12,13.02-11.03,23.94-24.06,23.69-14.02-.37-23.82-12.27-23.19-23.94Z"/>
      <path class="cls-1" d="M437.3,690.56c0-13.39,10.3-23.69,23.69-23.69s23.69,10.55,23.56,23.44c0,13.02-10.91,23.81-23.94,23.81s-23.31-10.54-23.31-23.56Z"/>
      <path class="cls-1" d="M420.81,450.95c0-12.9,10.42-23.44,23.07-23.56,12.65,0,23.44,10.54,23.44,23.19.12,12.66-10.42,23.19-23.19,23.32-13.27.12-23.31-9.8-23.31-22.95Z"/>
      <path class="cls-1" d="M656.07,720.44c0,12.9-10.42,23.44-23.19,23.44s-23.31-10.67-23.31-23.31,10.55-23.19,23.44-23.19,23.07,9.92,23.07,23.07Z"/>
      <path class="cls-1" d="M700.85,650.5c12.65.12,22.7,10.54,22.57,23.31-.12,12.65-10.54,22.95-23.19,22.95s-23.43-11.04-23.19-23.57c.37-12.77,10.79-22.82,23.81-22.69Z"/>
      <path class="cls-1" d="M488.4,403.7c0-12.78,10.17-23.07,22.95-23.19,12.77-.12,23.43,10.55,23.31,23.31-.13,12.28-10.91,22.95-23.07,22.83-12.66,0-23.19-10.42-23.19-22.95Z"/>
      <path class="cls-1" d="M730.86,524.12c-12.78,0-22.7-9.92-22.7-22.57s10.42-22.95,22.57-22.95c12.41.13,22.7,10.42,22.95,22.82.13,12.28-10.42,22.7-22.82,22.7Z"/>
      <path class="cls-1" d="M706.18,433.96c0,12.77-9.92,22.69-22.57,22.69s-22.95-10.29-22.95-22.57,10.79-23.07,23.19-22.94c12.15.12,22.32,10.54,22.32,22.82Z"/>
      <path class="cls-1" d="M425.4,680.39c-.13,12.28-9.67,21.71-22.07,21.71s-21.95-10.05-21.83-22.08c.12-11.78,10.54-22.07,22.32-21.83,12.02.13,21.7,9.92,21.58,22.2Z"/>
      <path class="cls-1" d="M529.94,758.15c-.25,11.78-10.17,21.46-22.19,21.21-11.9-.13-21.58-10.05-21.58-21.95s10.42-21.83,21.95-21.83c12.28,0,22.08,10.04,21.83,22.57Z"/>
      <path class="cls-1" d="M366.49,533.55c11.9,0,21.83,9.67,21.83,21.7s-9.67,22.08-21.83,22.2c-11.54.13-22.07-10.17-21.95-21.83.38-14.02,11.16-22.07,21.95-22.07Z"/>
      <path class="cls-1" d="M543.59,767.82c0-12.15,9.92-21.95,22.07-21.83,11.78.12,21.71,10.17,21.58,21.95-.13,11.66-10.42,21.83-21.95,21.71-12.02-.12-21.7-9.92-21.7-21.83Z"/>
      <path class="cls-1" d="M376.78,520.03c-12.15,0-21.95-9.92-21.83-22.07.13-11.78,10.17-21.71,21.95-21.58,11.66.12,21.83,10.42,21.7,21.95-.12,11.91-9.92,21.71-21.83,21.71Z"/>
      <path class="cls-1" d="M454.05,372.2c12.03,0,21.46,9.3,21.58,21.33.13,11.78-9.67,21.7-21.33,21.7s-21.83-10.17-21.7-21.83c.12-11.53,9.92-21.2,21.45-21.2Z"/>
      <path class="cls-1" d="M690.18,752.19c-12.03,0-21.46-9.3-21.58-21.2-.13-11.78,9.67-21.71,21.2-21.71s21.83,10.05,21.71,21.83c0,11.42-9.67,21.08-21.33,21.08Z"/>
      <path class="cls-1" d="M451.07,768.69c-11.9,0-21.08-9.06-21.21-20.96,0-11.78,9.18-21.21,20.96-21.33,11.41-.13,21.33,9.67,21.33,21.08s-9.3,21.21-21.08,21.21Z"/>
      <path class="cls-1" d="M768.31,605.11c11.66.13,21.09,9.8,20.84,21.46-.25,11.28-9.91,20.96-21.2,20.84-11.9,0-21.21-9.55-21.08-21.58.12-11.78,9.43-20.71,21.45-20.71Z"/>
      <path class="cls-1" d="M600.02,356.57c0,11.9-9.18,21.08-21.08,21.08s-21.21-9.3-21.21-21.08c-.12-11.41,9.8-21.33,21.21-21.2,11.78,0,21.08,9.43,21.08,21.2Z"/>
      <path class="cls-1" d="M777.73,589.98c-11.66,0-20.96-9.31-20.96-20.84s9.3-21.21,21.08-21.33c11.16-.13,21.08,9.67,21.08,20.96s-9.43,21.21-21.21,21.21Z"/>
      <path class="cls-1" d="M356.32,633.63c-11.66,0-20.96-9.18-21.08-20.71-.13-11.78,9.18-21.2,20.96-21.45,11.16-.13,21.08,9.55,21.21,20.84.12,11.66-9.31,21.33-21.08,21.33Z"/>
      <path class="cls-1" d="M636.23,387.46c-11.66,0-20.96-9.18-21.08-20.71-.12-11.78,9.18-21.2,20.96-21.45,11.16-.13,21.08,9.55,21.2,20.84.13,11.66-9.3,21.33-21.08,21.33Z"/>
      <path class="cls-1" d="M719.7,444.25c0-11.53,9.43-20.96,20.96-20.96s21.21,9.79,21.08,20.96c-.12,11.41-9.79,20.96-21.08,21.08-11.16.13-20.96-9.67-20.96-21.08Z"/>
      <path class="cls-1" d="M601.63,778.11c-.12-11.16,9.31-20.71,20.59-20.96,11.41-.13,21.08,9.18,21.21,20.71.12,11.42-9.43,21.08-20.71,21.08-11.53.13-20.96-9.3-21.08-20.84Z"/>
      <path class="cls-1" d="M407.54,441.03c-.37,11.66-9.92,20.71-21.45,20.46-11.42-.25-20.71-10.29-20.34-21.58.5-11.53,10.29-20.71,21.7-20.21,11.41.5,20.47,10.17,20.09,21.33Z"/>
      <path class="cls-1" d="M737.06,683.49c-.12-11.16,9.18-20.59,20.22-20.71,11.41-.12,20.96,9.18,20.96,20.47s-9.55,20.71-20.71,20.71c-11.04.13-20.47-9.18-20.47-20.46Z"/>
      <path class="cls-1" d="M521.88,325.81c11.04,0,20.47,9.55,20.34,20.59-.12,11.16-9.43,20.34-20.59,20.34s-20.21-9.3-20.34-20.21c-.12-11.41,9.06-20.71,20.59-20.71Z"/>
      <path class="cls-1" d="M673.56,376.66c0-11.16,9.06-20.09,20.22-20.09s20.71,9.31,20.34,20.47c-.5,11.41-8.81,19.6-20.09,19.96-11.16.38-20.47-9.05-20.47-20.34Z"/>
      <path class="cls-1" d="M788.15,531.57c-11.28,0-20.71-9.18-20.34-20.34.38-11.16,8.43-19.6,19.97-20.09,11.16-.5,20.46,9.05,20.46,20.21s-8.93,20.22-20.09,20.22Z"/>
      <path class="cls-1" d="M366.12,669.72c.13,10.67-8.8,19.72-19.47,19.84-10.91.12-19.97-8.93-19.97-19.84s9.18-19.6,19.72-19.72c10.54-.13,19.6,9.05,19.72,19.72Z"/>
      <path class="cls-1" d="M413,737.56c-.13,10.67-9.06,19.6-19.84,19.47-10.91-.12-19.97-9.3-19.6-20.09.25-10.54,9.67-19.59,20.09-19.34,10.67.12,19.47,9.3,19.35,19.96Z"/>
      <path class="cls-1" d="M680.01,807.26c-10.42,0-19.22-8.68-19.35-19.1-.12-10.67,8.93-19.72,19.6-19.72s19.22,8.93,19.22,19.6-8.68,19.35-19.47,19.23Z"/>
      <path class="cls-1" d="M416.35,383.48c0,10.42-8.68,19.23-19.1,19.35-10.67.13-19.72-8.93-19.72-19.6s8.93-19.35,19.6-19.22c10.67.12,19.23,8.8,19.23,19.47Z"/>
      <path class="cls-1" d="M747.72,759.63c-10.67,0-18.97-8.31-18.97-19.1s8.68-19.22,19.1-19.1c10.42.13,19.1,8.81,19.1,19.23s-8.68,18.97-19.23,18.97Z"/>
      <path class="cls-1" d="M464.34,317.01c10.54,0,19.35,8.43,19.35,18.85s-8.93,19.47-19.48,19.35c-10.29-.13-18.72-8.68-18.85-18.98,0-10.79,8.31-19.22,18.98-19.22Z"/>
      <path class="cls-1" d="M338.09,488.15c-.12,10.3-8.68,18.73-18.97,18.73-10.29-.13-18.97-8.81-18.97-18.85.12-10.42,9.05-19.22,19.35-18.97,10.17,0,18.72,8.8,18.6,19.09Z"/>
      <path class="cls-1" d="M309.57,526.23c10.29.12,18.72,8.68,18.6,18.97-.13,10.29-8.81,18.97-18.98,18.85-10.42-.13-19.22-9.06-18.97-19.35.25-10.17,9.05-18.6,19.35-18.48Z"/>
      <path class="cls-1" d="M497.83,796.22c10.29,0,18.85,8.43,18.97,18.72,0,10.3-8.43,19.1-18.6,19.1-10.29.13-19.22-8.68-19.22-19.1-.12-9.91,8.55-18.6,18.85-18.72Z"/>
      <path class="cls-1" d="M574.35,824.87c0,10.3-8.43,19.1-18.6,19.23-10.3.12-19.22-8.68-19.35-18.98-.12-10.04,8.68-18.84,18.97-18.84,10.42-.25,18.98,8.31,18.98,18.6Z"/>
      <path class="cls-1" d="M750.95,367.98c10.79,0,18.72,7.94,18.6,18.73,0,10.42-8.43,18.84-18.85,18.72-10.05-.13-18.6-8.68-18.6-18.72s8.43-18.73,18.85-18.73Z"/>
      <path class="cls-1" d="M779.73,454.3c0-10.79,7.93-18.73,18.6-18.73s18.85,8.31,18.85,18.73-8.55,18.6-18.6,18.72c-10.42,0-18.84-8.31-18.84-18.72Z"/>
      <path class="cls-1" d="M440.77,786.43c9.92.12,18.36,8.55,18.24,18.48,0,10.04-8.31,18.36-18.24,18.48-10.04.13-18.6-8.43-18.72-18.48,0-10.04,8.55-18.6,18.72-18.48Z"/>
      <path class="cls-1" d="M299.15,620.49c-10.3,0-18.36-7.82-18.36-18.11s8.06-18.48,18.11-18.48,18.35,8.31,18.48,18.23c.12,10.04-8.06,18.36-18.23,18.36Z"/>
      <path class="cls-1" d="M824.99,618.38c9.92,0,18.24,8.06,18.36,17.86.13,9.92-8.31,18.48-18.23,18.6-9.67.12-18.11-8.19-18.23-17.99,0-10.42,7.81-18.48,18.1-18.48Z"/>
      <path class="cls-1" d="M607.34,298.9c0,9.92-8.06,18.23-17.86,18.36-9.92.12-18.48-8.31-18.6-18.23-.12-9.67,8.19-18.11,17.99-18.11,10.42-.13,18.48,7.69,18.48,17.98Z"/>
      <path class="cls-1" d="M612.67,853.39c-10.3,0-18.23-7.94-18.11-18.36,0-9.92,8.31-18.23,18.11-18.1,9.92.12,18.36,8.55,18.36,18.48-.13,9.92-8.43,17.98-18.36,17.98Z"/>
      <path class="cls-1" d="M853.51,578.69c.13,9.92-7.94,18.23-17.73,18.48-9.79.13-18.48-8.18-18.6-18.1-.25-9.67,8.06-18.11,17.98-18.24,10.17-.25,18.24,7.69,18.36,17.86Z"/>
      <path class="cls-1" d="M628.29,308.7c.13-9.55,8.56-17.74,18.11-17.74,10.05,0,18.73,8.93,18.36,18.85-.38,9.92-8.68,17.73-18.6,17.61-10.29-.25-17.98-8.31-17.86-18.72Z"/>
      <path class="cls-1" d="M311.42,430.61c.13-10.05,8.19-17.98,18.24-17.98s18.23,8.55,18.1,18.23c-.25,9.79-8.55,18.11-18.23,18.11-9.79-.13-18.23-8.68-18.11-18.36Z"/>
      <path class="cls-1" d="M336.1,709.78c9.92,0,17.73,7.94,17.73,17.74s-8.06,17.98-17.73,17.85c-9.67-.12-17.85-8.31-17.85-17.85-.13-9.67,7.93-17.74,17.85-17.74Z"/>
      <path class="cls-1" d="M797.08,693.66c.13-9.8,8.07-17.61,17.86-17.61,9.55.13,17.61,8.06,17.61,17.61s-8.19,17.86-17.86,17.98c-9.55,0-17.61-8.19-17.61-17.98Z"/>
      <path class="cls-1" d="M531.69,306.71c-9.8,0-17.74-7.93-17.74-17.73s7.82-17.61,17.37-17.73c9.67-.12,18.23,8.31,18.11,18.11-.13,9.55-8.06,17.36-17.73,17.36Z"/>
      <path class="cls-1" d="M862.57,521.76c-.13,9.8-7.69,17.24-17.61,17.24-9.55-.12-17.49-8.18-17.24-17.73.25-9.18,8.43-17.24,17.61-17.11,9.55.12,17.37,7.93,17.24,17.61Z"/>
      <path class="cls-1" d="M721.06,318.99c0,9.92-7.44,17.49-17.36,17.49s-17.61-7.81-17.61-17.36,8.06-17.37,17.24-17.49c9.67-.12,17.61,7.69,17.73,17.37Z"/>
      <path class="cls-1" d="M754.67,798.33c0,9.55-7.69,17.24-17.24,17.24s-17.61-7.94-17.49-17.49c.12-9.05,8.06-17.12,17.11-17.24,9.55-.13,17.61,7.81,17.61,17.49Z"/>
      <path class="cls-1" d="M400.59,794.48c0,9.43-7.81,17.24-17.24,17.37-9.05,0-17.11-7.94-17.24-16.99-.12-9.43,7.69-17.49,17.12-17.49,9.43-.12,17.36,7.82,17.36,17.12Z"/>
      <path class="cls-1" d="M305.97,659.93c0,9.42-7.81,17.36-17.24,17.36s-17.24-7.94-17.24-17.36,7.93-17.12,17.11-17.12c9.43-.25,17.37,7.69,17.37,17.12Z"/>
      <path class="cls-1" d="M389.68,326.06c.13-9.43,8.07-17.24,17.49-17.11,9.43.12,17.24,8.06,17.11,17.49-.12,9.18-8.19,17.12-17.24,16.99-9.67-.13-17.49-7.94-17.37-17.37Z"/>
      <path class="cls-1" d="M356.19,373.19c0,9.18-7.69,16.74-16.86,16.61-9.18,0-16.87-7.68-16.87-16.74s7.94-17.11,17.12-16.99c9.17.25,16.61,7.94,16.61,17.12Z"/>
      <path class="cls-1" d="M808.12,413.74c-9.18,0-16.74-7.56-16.74-16.74s7.68-16.86,16.74-16.86,17.11,7.93,16.99,17.11c-.13,8.93-7.81,16.49-16.99,16.49Z"/>
      <path class="cls-1" d="M653.1,845.21c0-9.17,7.56-16.74,16.74-16.86,9.18,0,16.87,7.56,16.99,16.61.13,9.18-7.69,17.12-16.99,17.12s-16.74-7.69-16.74-16.87Z"/>
      <path class="cls-1" d="M805.15,734.46c9.05,0,16.37,7.56,16.25,16.62-.13,9.18-7.57,16.61-16.49,16.49-9.06-.13-16.75-7.94-16.62-16.99.12-8.93,7.69-16.25,16.87-16.13Z"/>
      <path class="cls-1" d="M474.27,295.3c-9.06,0-16.37-7.44-16.37-16.49s7.44-16.61,16.37-16.61,16.86,7.81,16.74,16.86c0,8.93-7.57,16.25-16.74,16.25Z"/>
      <path class="cls-1" d="M761.24,345.54c-9.18,0-16.12-7.07-16.12-16.13s7.44-16.25,16.25-16.12c8.43.12,16,7.81,16,16.12.12,8.8-7.2,16.13-16.13,16.13Z"/>
      <path class="cls-1" d="M871.62,464.34c0,9.18-6.95,16.13-16.13,16.13s-16.25-7.32-16.12-16.25c0-8.43,7.69-16,16.12-16.13,8.81,0,16.13,7.32,16.13,16.25Z"/>
      <path class="cls-1" d="M267.4,535.16c0,8.93-7.08,16.01-15.75,16.01-8.68-.13-15.88-7.44-15.88-16.13s7.07-15.5,15.75-15.63c9.05,0,15.88,6.83,15.88,15.75Z"/>
      <path class="cls-1" d="M262.07,461.87c8.68,0,15.75,6.82,15.87,15.5.13,8.8-7.32,16.25-16.12,16.25-8.56-.13-15.5-7.07-15.5-15.88-.13-9.05,6.69-15.87,15.75-15.87Z"/>
      <path class="cls-1" d="M545.2,866.91c8.93,0,16,7.07,16,15.88-.12,8.68-7.44,15.87-16.12,15.87s-15.5-7.07-15.5-15.75c-.13-9.18,6.57-16,15.62-16Z"/>
      <path class="cls-1" d="M503.66,872.49c0,8.93-6.95,15.75-16,15.63-8.68-.13-15.63-7.08-15.63-15.75s7.32-16.01,16-16.01,15.75,7.2,15.63,16.13Z"/>
      <path class="cls-1" d="M341.56,784.69c0,8.68-6.7,15.25-15.38,15.25s-15.5-6.95-15.5-15.38c.13-8.31,7.32-15.5,15.63-15.5,8.43.13,15.25,7.07,15.25,15.63Z"/>
      <path class="cls-1" d="M226.47,592.58c-.13-8.81,6.57-15.38,15.25-15.5,8.68,0,15.62,6.69,15.62,15.13s-7.07,15.5-15.37,15.63c-8.43.25-15.38-6.58-15.5-15.25Z"/>
      <path class="cls-1" d="M430.36,877.46c-8.68,0-15.37-6.58-15.37-15.38s6.82-15.62,15.25-15.5c8.31,0,15.5,7.2,15.5,15.5.12,8.43-6.7,15.25-15.38,15.38Z"/>
      <path class="cls-1" d="M278.93,732.47c-8.68,0-15.37-6.57-15.37-15.25s6.69-15.62,15.25-15.62,15.5,7.07,15.62,15.5c0,8.43-6.82,15.37-15.5,15.37Z"/>
      <path class="cls-1" d="M599.03,226.6c8.18-.13,15.37,7.07,15.25,15.13,0,8.31-6.83,15.13-15.13,15.25-8.06.13-15.25-7.07-15.25-15.13s6.82-15.25,15.13-15.25Z"/>
      <path class="cls-1" d="M257.1,420.56c0-8.31,6.7-15.25,15.01-15.37,8.19-.13,15.38,6.95,15.38,15.01s-7.08,15.5-15.5,15.37c-7.94,0-14.89-7.07-14.89-15.01Z"/>
      <path class="cls-1" d="M882.41,661.53c-8.31,0-15.13-6.82-15.25-15.13-.13-8.19,7.07-15.38,15.13-15.25,8.31,0,15.13,6.82,15.25,15.13.12,8.06-7.07,15.25-15.13,15.25Z"/>
      <path class="cls-1" d="M907.83,589.24c0,8.18-7.19,15.25-15.25,15.13-8.31-.12-15.13-7.07-15.13-15.37s7.2-15.13,15.37-15.13c8.19.25,15.01,7.07,15.01,15.38Z"/>
      <path class="cls-1" d="M602.37,907.71c-8.31,0-15.13-6.82-15.13-15.25s7.07-15.25,15.25-15.25c8.31.12,15.13,6.94,15.25,15.25,0,8.19-7.2,15.25-15.38,15.25Z"/>
      <path class="cls-1" d="M656.82,237.14c8.68,0,14.89,6.57,14.76,15.25-.12,8.19-6.82,14.76-15.01,14.76s-15.01-7.07-15.01-15.01,6.82-15.01,15.25-15.01Z"/>
      <path class="cls-1" d="M349.62,330.78c-8.31,0-15.13-6.82-15.01-15.13.13-7.93,7.2-14.88,15.13-14.88,8.18.12,14.88,6.7,14.88,14.88,0,8.68-6.32,15.13-15.01,15.13Z"/>
      <path class="cls-1" d="M712.26,855.75c-.12-8.68,6.2-15.13,14.89-15.13s15.13,6.83,15.13,15.13c-.13,7.94-7.07,14.88-15.01,14.88-8.31-.12-15.01-6.69-15.01-14.88Z"/>
      <path class="cls-1" d="M794.6,823.01c-8.31,0-14.88-6.7-14.76-15.01,0-8.19,6.95-14.89,15.13-14.76,7.68.12,14.75,7.2,14.75,14.88-.12,8.19-6.94,14.89-15.13,14.89Z"/>
      <path class="cls-1" d="M416.97,253.63c8.31-.12,15.01,6.45,15.01,14.76.13,8.19-6.57,15.01-14.88,15.01-7.69.13-14.89-6.94-15.01-14.63,0-8.19,6.69-15.01,14.88-15.13Z"/>
      <path class="cls-1" d="M887.24,703.58c0,7.94-6.69,14.76-14.63,14.76s-15.01-6.82-14.88-15.01c0-7.69,6.82-14.51,14.51-14.64,7.93,0,14.88,6.7,15,14.89Z"/>
      <path class="cls-1" d="M556.37,231.56c0,8.31-6.33,14.51-14.64,14.39-7.81,0-14.51-6.58-14.51-14.39s6.95-15.01,15.01-14.76c7.81.13,14.14,6.82,14.14,14.76Z"/>
      <path class="cls-1" d="M245.94,649.76c0,7.81-6.57,14.38-14.38,14.26-7.82,0-14.51-6.57-14.51-14.38s6.82-14.63,14.76-14.63c7.68.25,14.14,6.94,14.14,14.76Z"/>
      <path class="cls-1" d="M713.87,276.33c-7.82,0-14.51-6.7-14.51-14.38s6.82-14.64,14.76-14.64c7.69.13,14.26,6.82,14.14,14.64.13,7.93-6.45,14.38-14.38,14.38Z"/>
      <path class="cls-1" d="M879.81,406.92c0,7.94-6.45,14.39-14.39,14.39s-14.51-6.58-14.51-14.26,6.83-14.76,14.64-14.64c7.81-.12,14.26,6.57,14.26,14.51Z"/>
      <path class="cls-1" d="M373.31,866.54c-7.94,0-14.64-6.32-14.76-14.14-.13-7.94,6.57-14.76,14.51-14.76,7.69-.12,14.38,6.57,14.38,14.39.13,7.93-6.32,14.5-14.14,14.5Z"/>
      <path class="cls-1" d="M818.54,325.32c7.94,0,14.38,6.45,14.38,14.39s-6.57,14.51-14.26,14.63c-7.93,0-14.76-6.7-14.63-14.63,0-7.82,6.57-14.39,14.51-14.39Z"/>
      <path class="cls-1" d="M902.75,546.33c-7.81,0-14.26-6.58-14.26-14.51.12-7.82,6.69-14.51,14.38-14.51s14.63,6.94,14.51,14.76c-.13,7.93-6.7,14.38-14.64,14.26Z"/>
      <path class="cls-1" d="M674.05,902.75c0,7.94-6.08,14.14-14.01,14.14s-14.26-6.32-14.26-14.02,6.57-14.14,14.14-14.26c7.69-.13,14.14,6.32,14.14,14.14Z"/>
      <path class="cls-1" d="M296.17,363.14c0,7.44-6.44,14.02-13.76,14.02-7.69,0-14.14-6.44-14.26-14.14-.13-7.44,6.69-14.02,14.26-14.02,7.56.25,13.76,6.57,13.76,14.14Z"/>
      <path class="cls-1" d="M862.44,747.6c7.44.13,13.39,6.2,13.39,13.77-.12,7.57-6.32,13.65-13.64,13.52-7.56-.12-13.89-6.7-13.64-14.14,0-7.32,6.2-13.15,13.89-13.15Z"/>
      <path class="cls-1" d="M484.68,235.16c-7.57,0-13.65-5.96-13.65-13.52s5.96-13.77,13.4-13.89c7.44-.13,13.89,6.32,14.01,13.77,0,7.56-6.2,13.64-13.76,13.64Z"/>
      <path class="cls-1" d="M268.64,787.66c-7.56,0-13.27-5.71-13.27-13.14s6.08-13.52,13.14-13.4c7.2,0,13.27,6.08,13.4,13.4.12,6.94-5.96,13.14-13.27,13.14Z"/>
      <path class="cls-1" d="M784.43,272.12c0,7.56-5.71,13.26-13.14,13.26s-13.52-6.08-13.4-13.14c0-7.2,6.08-13.27,13.4-13.39,6.94-.13,13.14,5.95,13.14,13.27Z"/>
      <path class="cls-1" d="M912.67,461.12c7.57,0,13.27,5.58,13.27,13.14s-5.95,13.52-13.14,13.52-13.27-6.08-13.52-13.27c0-7.32,6.08-13.39,13.39-13.39Z"/>
      <path class="cls-1" d="M221.51,694.15c7.2-.13,12.9,5.45,12.9,12.65s-5.83,13.02-12.65,13.02-12.9-5.83-13.02-12.78c-.25-6.82,5.84-12.9,12.78-12.9Z"/>
      <path class="cls-1" d="M360.04,271.37c-6.95,0-13.02-5.84-13.02-12.66s5.96-12.9,12.78-13.02c6.82-.13,12.78,5.83,12.9,12.77.13,7.2-5.45,12.9-12.65,12.9Z"/>
      <path class="cls-1" d="M477.74,942.31c-6.95,0-13.02-5.95-12.9-12.77.12-6.95,6.08-12.78,12.9-12.9,6.82-.12,12.78,5.96,12.78,12.9s-5.71,12.77-12.78,12.77Z"/>
      <path class="cls-1" d="M797.46,865.79c0,6.95-5.96,13.02-12.78,12.9-6.82,0-12.9-5.96-12.9-12.9-.13-6.82,5.95-12.77,12.9-12.77s12.9,5.58,12.78,12.77Z"/>
      <path class="cls-1" d="M315.76,829.09c6.95,0,13.02,5.83,13.15,12.65,0,7.07-6.2,13.14-13.15,13.14-6.69-.12-12.4-5.95-12.52-12.77-.25-7.2,5.33-12.9,12.52-13.02Z"/>
      <path class="cls-1" d="M194.6,512.22c6.7.12,12.53,5.95,12.53,12.78-.13,7.07-6.08,12.77-13.02,12.65-6.57-.13-12.28-5.96-12.28-12.53,0-7.07,5.83-12.9,12.78-12.9Z"/>
      <path class="cls-1" d="M547.56,939.96c0,6.69-5.95,12.65-12.65,12.52-6.95-.12-12.53-5.7-12.65-12.65-.13-6.7,5.7-12.65,12.52-12.78,6.95,0,12.78,5.96,12.78,12.9Z"/>
      <path class="cls-1" d="M204.27,480.47c-6.82-.25-12.4-6.32-12.15-13.02.25-7.07,6.45-12.65,13.39-12.28,6.7.38,12.15,6.2,11.9,12.9-.25,6.94-6.2,12.65-13.14,12.4Z"/>
      <path class="cls-1" d="M717.34,925.08c-6.95,0-12.53-5.45-12.53-12.4s5.58-12.53,12.53-12.53c6.45,0,12.4,5.83,12.4,12.28.13,7.07-5.45,12.65-12.4,12.65Z"/>
      <path class="cls-1" d="M292.7,318.38c-7.07.12-12.53-5.33-12.65-12.28,0-6.95,5.45-12.53,12.4-12.65,6.45-.13,12.4,5.7,12.53,12.27.12,6.83-5.33,12.53-12.28,12.66Z"/>
      <path class="cls-1" d="M875.83,361.9c-6.57,0-12.4-5.58-12.52-12.15-.13-6.45,5.83-12.4,12.27-12.4s12.28,5.7,12.41,12.28c.12,6.57-5.46,12.27-12.16,12.27Z"/>
      <path class="cls-1" d="M172.28,582.04c0-6.7,5.71-12.28,12.4-12.15,6.57.12,12.28,5.83,12.28,12.4s-6.08,12.4-12.4,12.28c-6.7-.13-12.28-5.83-12.28-12.53Z"/>
      <path class="cls-1" d="M432.72,919.74c0,6.57-5.7,12.28-12.28,12.4-6.44,0-12.4-5.95-12.4-12.4.13-6.57,5.71-12.28,12.4-12.28,6.83-.12,12.41,5.58,12.28,12.28Z"/>
      <path class="cls-1" d="M580.54,949.76c0-6.7,5.21-11.9,11.91-11.9s12.02,5.21,12.27,11.9c.13,6.45-5.83,12.4-12.27,12.28-6.7-.25-11.91-5.71-11.91-12.28Z"/>
      <path class="cls-1" d="M427.51,199.32c6.69,0,11.9,5.21,11.9,12.03s-5.33,12.02-11.9,12.15c-6.33.12-12.16-5.58-12.28-11.9-.13-6.82,5.45-12.28,12.28-12.28Z"/>
      <path class="cls-1" d="M214.57,422.06c-6.7,0-11.91-5.21-11.91-12.03s5.33-12.03,11.91-12.15c6.32-.13,12.15,5.58,12.27,11.9.13,6.82-5.45,12.4-12.27,12.28Z"/>
      <path class="cls-1" d="M864.31,818.42c0,6.82-5.08,12.02-11.9,12.02s-12.41-5.45-12.28-12.15c.12-6.32,5.95-12.02,12.28-12.02s11.78,5.45,11.9,12.15Z"/>
      <path class="cls-1" d="M666.87,206.38c-6.57.13-12.15-5.33-12.15-12.02s5.21-11.78,11.78-11.91c6.08-.25,12.03,5.46,12.15,11.66.25,6.44-5.21,12.15-11.78,12.27Z"/>
      <path class="cls-1" d="M621.35,184.31c.12,6.57-5.33,12.15-11.9,12.15s-11.78-5.21-12.03-11.66c-.25-6.32,5.71-12.27,12.03-12.27s11.78,5.33,11.9,11.78Z"/>
      <path class="cls-1" d="M937.84,599.03c.13-6.57,5.58-11.9,12.28-11.78,6.45.12,11.66,5.58,11.66,12.02s-5.7,11.9-11.9,11.9c-6.57-.12-12.03-5.58-12.03-12.15Z"/>
      <path class="cls-1" d="M940.08,644.79c6.57.13,12.02,5.71,11.78,12.28-.25,6.2-6.08,11.78-12.15,11.66-6.57-.25-11.78-5.58-11.78-11.9.13-6.7,5.58-12.15,12.16-12.03Z"/>
      <path class="cls-1" d="M828.34,293.7c-6.69,0-11.66-5.08-11.53-11.78,0-6.45,5.08-11.54,11.41-11.66,6.44,0,11.78,5.33,11.9,11.78.12,6.44-5.08,11.66-11.78,11.66Z"/>
      <path class="cls-1" d="M923.33,428.75c-6.69.13-11.78-4.84-11.78-11.53s5.21-11.91,11.66-11.91c6.45.13,11.78,5.46,11.78,11.91-.13,6.32-5.33,11.41-11.66,11.53Z"/>
      <path class="cls-1" d="M929.54,702.34c6.32,0,11.66,5.21,11.78,11.28,0,6.32-5.46,11.78-11.78,11.78s-11.41-5.46-11.41-11.66,4.96-11.41,11.41-11.41Z"/>
      <path class="cls-1" d="M563.68,174.39c0,6.45-5.08,11.41-11.54,11.29-6.32,0-11.66-5.33-11.66-11.41s5.58-11.78,11.9-11.66c6.2.12,11.41,5.58,11.29,11.78Z"/>
      <path class="cls-1" d="M735.2,204.78c-.13,6.44-5.33,11.53-11.66,11.28-5.96-.12-11.29-5.7-11.04-11.66.25-6.2,5.33-11.03,11.54-11.03s11.16,5.21,11.16,11.41Z"/>
      <path class="cls-1" d="M971.46,541.86c0,6.2-5.08,11.29-11.16,11.29s-11.29-4.84-11.54-11.16c-.12-5.96,5.08-11.41,11.04-11.66,6.32,0,11.54,5.08,11.66,11.53Z"/>
      <path class="cls-1" d="M374.55,909.33c0,6.45-5.21,11.66-11.54,11.54-5.95-.13-11.28-5.58-11.16-11.54.13-6.2,5.08-11.16,11.41-11.28,6.08,0,11.29,5.08,11.29,11.28Z"/>
      <path class="cls-1" d="M174.01,651.12c-6.08-.12-11.16-5.33-11.03-11.53.12-6.2,5.21-11.29,11.41-11.29s11.41,5.46,11.41,11.41c-.13,6.45-5.33,11.54-11.78,11.41Z"/>
      <path class="cls-1" d="M222.25,764.6c-.12,6.2-4.96,10.91-11.03,10.91s-10.79-4.96-10.79-10.79,5.33-11.28,11.41-11.16c5.71.13,10.55,5.21,10.42,11.04Z"/>
      <path class="cls-1" d="M224.86,363.77c-6.2-.13-10.91-4.96-10.79-11.04,0-5.83,4.96-10.79,10.79-10.79s11.29,5.33,11.16,11.41c-.25,5.71-5.33,10.54-11.16,10.42Z"/>
      <path class="cls-1" d="M258.84,842.97c-6.2,0-11.03-4.71-11.03-10.91-.13-5.95,5.08-11.16,11.03-11.03,5.96.12,11.04,5.21,10.91,11.16-.12,5.83-5.08,10.79-10.91,10.79Z"/>
      <path class="cls-1" d="M638.84,959.93c.12-6.2,4.96-10.91,11.16-10.79,5.83,0,10.79,5.08,10.79,10.79,0,6.08-5.33,11.29-11.41,11.16-5.84-.25-10.67-5.33-10.55-11.16Z"/>
      <path class="cls-1" d="M908.83,770.92c0-5.83,4.71-10.42,10.54-10.42s10.55,4.84,10.55,10.42c.12,5.58-4.84,10.54-10.42,10.67-5.71.25-10.67-4.72-10.67-10.67Z"/>
      <path class="cls-1" d="M494.48,153.8c5.83,0,10.79,5.08,10.67,10.79-.12,5.58-5.21,10.42-10.79,10.29-5.71-.12-10.3-4.96-10.3-10.67s4.72-10.42,10.42-10.42Z"/>
      <path class="cls-1" d="M369.59,191.13c5.95-.12,10.42,4.34,10.54,10.3,0,5.7-4.84,10.54-10.42,10.42-5.33,0-10.29-4.96-10.17-10.42-.12-5.58,4.59-10.17,10.05-10.3Z"/>
      <path class="cls-1" d="M312.54,248.3c0,5.71-4.84,10.42-10.55,10.42-5.33-.12-10.29-5.08-10.17-10.42.13-5.58,4.72-10.17,10.17-10.29,6.08,0,10.55,4.46,10.55,10.29Z"/>
      <path class="cls-1" d="M980.26,484.56c0,5.7-4.84,10.54-10.54,10.42-5.33-.13-10.3-5.08-10.17-10.42.12-5.58,4.71-10.3,10.17-10.3,5.95,0,10.54,4.47,10.54,10.3Z"/>
      <path class="cls-1" d="M831.69,875.84c-.12-5.96,4.34-10.42,10.3-10.55,5.58,0,10.17,4.47,10.42,10.05.25,5.45-4.84,10.67-10.42,10.54-5.58.13-10.3-4.46-10.3-10.04Z"/>
      <path class="cls-1" d="M781.46,225.24c-5.71,0-10.42-4.84-10.3-10.54.13-5.33,5.08-10.17,10.42-10.17,5.58.12,10.17,4.71,10.3,10.29-.13,5.96-4.59,10.42-10.42,10.42Z"/>
      <path class="cls-1" d="M774.39,933.26c-5.96-.13-10.3-4.59-10.17-10.55.12-5.45,4.84-10.04,10.42-10.17,5.33,0,10.29,4.96,10.29,10.3,0,5.7-4.84,10.54-10.54,10.42Z"/>
      <path class="cls-1" d="M164.22,706.93c-5.46,0-9.92-4.34-10.05-9.8,0-5.33,4.72-10.04,9.92-10.04,5.33.12,9.92,4.84,9.92,10.17-.12,4.96-4.71,9.55-9.79,9.67Z"/>
      <path class="cls-1" d="M295.8,899.28c0-5.46,4.34-9.92,9.79-10.05,5.33,0,10.05,4.72,10.05,9.92-.13,5.33-4.84,9.92-10.17,9.92s-9.67-4.59-9.67-9.79Z"/>
      <path class="cls-1" d="M942.43,360.05c-.12,5.45-4.34,9.55-9.92,9.43-5.21-.13-9.43-4.47-9.43-9.55s4.59-9.67,9.8-9.67c5.45-.12,9.67,4.34,9.55,9.8Z"/>
      <path class="cls-1" d="M886.13,301.88c-5.33.13-9.8-4.21-9.8-9.55s4.59-9.67,9.8-9.67,9.43,4.22,9.43,9.43c.12,5.58-3.97,9.79-9.43,9.79Z"/>
      <path class="cls-1" d="M235.03,305.11c-5.21,0-9.43-4.47-9.3-9.55.12-5.21,4.59-9.55,9.55-9.3,5.08.12,9.43,4.59,9.3,9.67.13,4.96-4.33,9.18-9.55,9.18Z"/>
      <path class="cls-1" d="M697.5,970.22c0-5.21,4.34-9.42,9.43-9.3,5.21.13,9.55,4.47,9.43,9.43-.13,5.08-4.46,9.43-9.55,9.43-4.96.12-9.31-4.34-9.31-9.55Z"/>
      <path class="cls-1" d="M467.93,977.41c5.21,0,9.43,4.34,9.31,9.55-.13,5.21-4.59,9.55-9.55,9.3-5.08-.13-9.42-4.59-9.42-9.67.12-4.96,4.46-9.3,9.67-9.18Z"/>
      <path class="cls-1" d="M137.06,505.52c5.21-.12,9.17,3.72,9.3,8.8.12,5.21-4.09,9.55-9.18,9.55s-9.18-4.34-9.18-9.18,4.09-9.05,9.06-9.18Z"/>
      <path class="cls-1" d="M428.25,154.05c0-5.21,3.85-9.05,9.05-9.05s9.18,3.97,9.3,8.93c.13,4.96-4.46,9.55-9.42,9.43-4.96-.13-8.93-4.22-8.93-9.31Z"/>
      <path class="cls-1" d="M918.62,828.71c0,5.21-3.85,9.06-9.05,9.06s-9.18-3.97-9.31-8.93c-.12-4.96,4.47-9.55,9.43-9.43,4.84.12,8.8,4.34,8.93,9.3Z"/>
      <path class="cls-1" d="M156.28,457.65c-.13,5.08-4.09,8.92-9.18,8.92-5.08-.12-9.18-4.09-9.18-9.18s4.34-9.17,9.18-9.17c4.96-.13,9.18,4.21,9.18,9.43Z"/>
      <path class="cls-1" d="M525.23,987.96c5.08.12,8.93,4.09,8.93,9.18-.13,5.08-4.22,9.05-9.18,9.17-4.84,0-9.18-4.33-9.18-9.17-.12-5.08,4.22-9.18,9.43-9.18Z"/>
      <path class="cls-1" d="M126.76,581.3c-4.71-.13-8.8-4.21-8.8-9.05s4.21-8.93,8.93-8.93,8.92,4.09,9.05,8.8c0,4.96-4.21,9.18-9.18,9.18Z"/>
      <path class="cls-1" d="M410.27,967.99c4.96.13,9.06,4.47,8.93,9.43-.25,4.72-4.46,8.68-9.3,8.55-4.72-.12-8.8-4.46-8.68-9.17.13-4.84,4.21-8.93,9.05-8.81Z"/>
      <path class="cls-1" d="M582.53,998.74c4.84.13,8.43,3.97,8.31,8.81-.13,4.71-4.22,8.55-8.8,8.55-4.47-.13-8.68-4.34-8.56-8.8,0-4.72,4.22-8.68,9.06-8.56Z"/>
      <path class="cls-1" d="M157.4,408.91c-4.72,0-8.68-3.97-8.68-8.55s4.09-8.68,8.55-8.8c4.71-.13,8.8,4.09,8.8,8.93-.12,4.71-3.85,8.43-8.68,8.43Z"/>
      <path class="cls-1" d="M980.51,418.58c4.59.13,8.56,4.34,8.56,8.81-.13,4.84-4.34,8.68-9.18,8.55-4.84-.25-8.43-4.09-8.19-8.93.13-4.59,4.22-8.55,8.8-8.43Z"/>
      <path class="cls-1" d="M838.39,233.54c-4.84-.12-8.43-3.97-8.31-8.8.13-4.71,4.09-8.68,8.68-8.55,4.47,0,8.68,4.21,8.68,8.68,0,4.71-4.21,8.8-9.05,8.68Z"/>
      <path class="cls-1" d="M676.91,145.49c-4.71,0-8.31-3.47-8.31-8.19s3.72-8.68,8.55-8.55c4.34.12,8.31,4.21,8.31,8.55-.12,4.59-3.84,8.19-8.55,8.19Z"/>
      <path class="cls-1" d="M998.74,609.33c0-4.72,3.47-8.31,8.18-8.31s8.68,3.85,8.56,8.56c-.13,4.21-3.97,8.06-8.19,8.18-4.71.25-8.55-3.59-8.55-8.43Z"/>
      <path class="cls-1" d="M192.74,821.52c0-4.72,3.73-8.19,8.43-8.07,4.59.13,8.31,3.73,8.31,8.31,0,4.34-3.97,8.43-8.31,8.43-4.71,0-8.43-3.84-8.43-8.68Z"/>
      <path class="cls-1" d="M610.93,126.89c0-4.71,3.47-8.31,8.31-8.31s8.68,3.85,8.55,8.55c-.12,4.22-3.97,8.06-8.18,8.19-4.84.25-8.68-3.6-8.68-8.43Z"/>
      <path class="cls-1" d="M997.13,674.81c-4.71,0-8.31-3.47-8.31-8.31s3.85-8.68,8.55-8.56c4.21.13,8.06,3.97,8.19,8.19.25,4.84-3.6,8.68-8.43,8.68Z"/>
      <path class="cls-1" d="M162.35,754.18c0,4.46-3.85,8.31-8.43,8.31-4.21-.13-7.94-3.97-7.94-8.31s3.73-8.07,8.19-8.07,8.06,3.73,8.19,8.07Z"/>
      <path class="cls-1" d="M995.02,724.17c.13,4.34-3.59,8.19-7.93,8.19-4.34.12-8.19-3.6-8.31-7.94-.12-4.47,3.73-8.43,8.19-8.43,4.21,0,7.94,3.85,8.06,8.19Z"/>
      <path class="cls-1" d="M570.25,116.85c.12,4.34-3.6,8.31-7.81,8.43-4.47.13-8.43-3.59-8.43-8.18,0-4.22,3.72-8.07,8.06-8.19,4.34-.13,8.06,3.47,8.19,7.94Z"/>
      <path class="cls-1" d="M248.3,881.05c4.34-.12,8.19,3.48,8.31,7.94.13,4.34-3.6,8.31-7.81,8.43-4.47.12-8.43-3.6-8.55-8.19-.13-4.21,3.72-8.06,8.06-8.19Z"/>
      <path class="cls-1" d="M360.91,966.63c0,4.34-3.6,7.81-7.94,7.81s-7.81-3.6-7.81-7.81,3.59-7.82,7.81-7.94c3.97,0,7.94,3.97,7.94,7.94Z"/>
      <path class="cls-1" d="M742.02,147.48c0,4.34-3.6,7.81-7.94,7.81s-7.81-3.6-7.81-7.81,3.6-7.81,7.81-7.94c4.09,0,8.06,3.97,7.94,7.94Z"/>
      <path class="cls-1" d="M839.5,932.64c.13,4.34-3.34,7.94-7.68,8.07-4.22.12-7.94-3.35-8.07-7.69-.12-3.97,3.73-8.06,7.69-8.06,4.21-.13,7.94,3.47,8.06,7.68Z"/>
      <path class="cls-1" d="M1017.59,560.09c-4.22.13-7.94-3.34-8.07-7.68-.12-4.34,3.23-7.94,7.56-8.07,4.22-.12,7.94,3.23,8.19,7.57.13,3.97-3.6,8.06-7.68,8.18Z"/>
      <path class="cls-1" d="M312.54,183.2c3.97-.13,7.94,3.84,7.94,7.81,0,4.21-3.6,7.81-7.81,7.94-4.34,0-7.82-3.48-7.94-7.82,0-4.21,3.6-7.81,7.81-7.93Z"/>
      <path class="cls-1" d="M124.9,629.67c0,4.21-3.72,7.81-7.93,7.81-3.97,0-7.94-4.09-7.82-8.06.13-4.34,3.73-7.82,8.07-7.69,4.34.12,7.68,3.6,7.68,7.94Z"/>
      <path class="cls-1" d="M647.39,1017.35c0,3.97-3.97,7.94-7.93,7.81-4.34-.12-7.82-3.72-7.82-7.93s3.6-7.82,7.94-7.82,7.81,3.6,7.81,7.94Z"/>
      <path class="cls-1" d="M175.13,342.93c0,4.34-3.1,7.44-7.44,7.56-4.09,0-7.56-3.35-7.69-7.44,0-3.97,3.48-7.68,7.57-7.68s7.56,3.47,7.56,7.56Z"/>
      <path class="cls-1" d="M771.79,980.14c0,4.09-3.48,7.57-7.56,7.57-4.34,0-7.44-3.1-7.44-7.44,0-4.09,3.47-7.56,7.44-7.56,3.97-.13,7.56,3.47,7.56,7.44Z"/>
      <path class="cls-1" d="M252.51,238.51c0,4.34-3.22,7.44-7.56,7.44-4.09,0-7.56-3.48-7.56-7.57s3.72-7.56,7.68-7.56c4.09.13,7.57,3.6,7.44,7.69Z"/>
      <path class="cls-1" d="M379.88,151.07c-3.97-.13-7.07-3.6-6.95-7.56.13-3.73,3.48-6.95,7.2-6.95,4.09.13,7.32,3.47,7.32,7.32-.12,3.97-3.72,7.32-7.56,7.2Z"/>
      <path class="cls-1" d="M512.09,106.55c.12,4.09-3.1,7.44-7.07,7.44s-7.32-3.35-7.44-7.32c0-3.97,3.35-7.2,7.32-7.2s7.07,3.22,7.2,7.07Z"/>
      <path class="cls-1" d="M899.4,878.7c3.97.12,7.07,3.59,6.94,7.56-.12,3.72-3.47,6.95-7.19,6.95-4.09,0-7.44-3.35-7.32-7.32.13-3.97,3.73-7.32,7.57-7.19Z"/>
      <path class="cls-1" d="M950.5,302.5c0,3.85-3.35,7.32-7.2,7.44-3.97.12-7.2-3.23-7.32-7.32,0-3.73,3.22-7.08,6.94-7.2,4.09-.13,7.57,3.1,7.57,7.07Z"/>
      <path class="cls-1" d="M977.04,774.15c3.85.13,7.32,3.6,7.2,7.44,0,3.97-3.48,7.19-7.56,7.07-3.73-.13-6.95-3.35-6.95-7.2,0-4.09,3.35-7.44,7.32-7.32Z"/>
      <path class="cls-1" d="M997.5,369.84c0,3.85-3.23,6.95-7.2,6.95-3.6-.13-6.7-3.35-6.7-6.95s3.48-7.07,7.2-6.95c3.6.13,6.7,3.35,6.7,6.95Z"/>
      <path class="cls-1" d="M791.25,164.35c-3.6,0-6.69-3.23-6.82-6.82,0-3.73,3.35-7.08,7.07-6.95,3.6.12,6.82,3.35,6.82,6.95s-3.22,6.82-7.07,6.82Z"/>
      <path class="cls-1" d="M1034.58,494.98c-.13,3.84-3.35,6.94-7.2,6.82-3.6-.13-6.7-3.35-6.7-7.07s3.6-7.08,7.32-6.83c3.59.25,6.57,3.48,6.57,7.08Z"/>
      <path class="cls-1" d="M902.87,235.16c0,3.6-3.1,6.82-6.82,6.95-3.73.12-7.2-3.23-7.07-6.95,0-3.6,3.22-6.82,6.82-6.82,3.85-.13,7.07,2.97,7.07,6.82Z"/>
      <path class="cls-1" d="M113.37,686.71c0,3.6-2.85,6.57-6.45,6.7-3.6.12-6.95-3.23-6.82-6.82.13-3.6,3.1-6.45,6.7-6.45s6.57,2.97,6.57,6.57Z"/>
      <path class="cls-1" d="M295.67,963.4c-3.72-.12-6.69-3.22-6.44-7.07.12-3.6,3.22-6.32,6.82-6.2,3.6.12,6.45,3.09,6.32,6.69-.12,3.48-3.35,6.7-6.7,6.57Z"/>
      <path class="cls-1" d="M697,1033.72c-3.6,0-6.2-2.73-6.08-6.32.13-3.23,2.85-6.08,6.08-6.08,3.47,0,6.32,2.73,6.32,6.2s-2.85,6.2-6.32,6.2Z"/>
      <path class="cls-1" d="M183.81,285.51c-.13,3.47-3.1,6.2-6.45,6.08s-6.08-3.1-5.96-6.57c.13-3.6,2.98-6.08,6.58-5.83,3.34.25,5.95,3.1,5.83,6.32Z"/>
      <path class="cls-1" d="M197.08,879.06c-.12,3.22-2.97,5.83-6.32,5.58-3.22-.12-5.45-2.73-5.33-5.95.13-3.1,2.73-5.71,5.71-5.71,3.22.13,6.08,2.97,5.95,6.08Z"/>
      <path class="cls-1" d="M149.58,811.6c0,3.22-2.48,5.7-5.7,5.7s-6.08-2.73-5.96-5.95c.13-3.23,3.1-5.96,6.2-5.83,3.1.12,5.58,2.85,5.45,6.08Z"/>
      <path class="cls-1" d="M447.47,90.93c2.97-.13,5.71,2.48,5.96,5.58.25,3.34-2.24,6.08-5.71,6.08-3.1,0-5.83-2.48-6.08-5.46-.13-3.1,2.73-6.08,5.83-6.2Z"/>
      <path class="cls-1" d="M972.57,838.76c0,3.22-2.98,5.83-6.2,5.7-3.22-.12-5.58-2.73-5.45-5.95.12-3.1,2.73-5.83,5.7-5.83s6.08,2.85,5.96,6.08Z"/>
      <path class="cls-1" d="M849.42,162.36c2.98.25,5.21,2.97,4.84,5.95-.25,2.85-2.85,5.08-5.58,4.84-2.97-.25-5.33-2.97-5.21-5.83.25-3.1,2.97-5.33,5.95-4.96Z"/>
      <path class="cls-1" d="M514.44,1048.98c3.1-.13,5.59,2.23,5.59,5.21.12,3.1-2.36,5.58-5.33,5.58s-5.46-2.73-5.46-5.58,2.36-5.08,5.21-5.21Z"/>
      <path class="cls-1" d="M85.34,504.78c0,3.1-2.48,5.46-5.45,5.33-2.85,0-5.21-2.36-5.33-5.21-.13-2.85,2.48-5.58,5.33-5.71,2.97,0,5.58,2.48,5.45,5.58Z"/>
      <path class="cls-1" d="M462.98,1044.51c-.12,2.85-2.85,5.46-5.71,5.33-2.97-.12-5.33-2.73-5.08-5.83.26-3.1,2.73-5.21,5.84-5.08,2.85.38,5.08,2.85,4.96,5.58Z"/>
      <path class="cls-1" d="M95.26,447.73c-.12,2.85-2.36,5.21-5.21,5.21-3.1,0-5.84-2.85-5.59-5.83.26-2.85,2.61-4.96,5.46-4.96,3.1.12,5.46,2.6,5.33,5.58Z"/>
      <path class="cls-1" d="M1037.43,442.65c-2.85,0-5.21-2.24-5.33-5.08-.12-2.98,2.73-5.83,5.71-5.71,2.85.13,5.08,2.48,5.08,5.33,0,3.1-2.36,5.46-5.46,5.46Z"/>
      <path class="cls-1" d="M96.63,748.85c-2.73.12-4.96-1.99-5.08-4.84-.13-2.73,2.1-5.08,4.84-5.08,2.6-.13,5.08,2.23,5.08,4.84.12,2.73-2.11,4.96-4.84,5.08Z"/>
      <path class="cls-1" d="M816.93,990.44c.13-2.73,2.23-4.84,5.08-4.84s4.96,2.36,4.84,5.08c0,2.61-2.48,4.96-5.08,4.84-2.73-.13-4.96-2.36-4.84-5.08Z"/>
      <path class="cls-1" d="M889.35,948.02c-2.73,0-4.96-2.23-4.96-4.96s2.35-4.96,4.96-4.96,4.96,2.36,4.96,4.96c0,2.85-2.36,5.08-4.96,4.96Z"/>
      <path class="cls-1" d="M105.05,389.81c.13,2.73-1.98,4.96-4.83,5.08-2.73.13-5.08-2.1-5.08-4.84-.13-2.6,2.23-5.08,4.83-5.08,2.73-.13,5.08,2.1,5.08,4.83Z"/>
      <path class="cls-1" d="M237.88,951.37c-2.73-.13-4.84-2.36-4.72-5.21.13-2.73,2.49-4.84,5.21-4.84,2.61.13,4.96,2.48,4.84,5.21-.25,2.73-2.61,4.96-5.33,4.84Z"/>
      <path class="cls-1" d="M74.67,562.08c-.12,2.73-2.23,4.84-5.08,4.84-2.73-.13-4.96-2.36-4.84-5.08,0-2.73,2.48-4.96,5.08-4.84,2.73.12,4.84,2.48,4.84,5.08Z"/>
      <path class="cls-1" d="M255.37,185.8c-2.73,0-4.84-2.23-4.84-5.08s2.36-4.96,5.08-4.84c2.61,0,4.96,2.49,4.84,5.08-.13,2.61-2.48,4.84-5.08,4.84Z"/>
      <path class="cls-1" d="M322.96,138.79c-2.85,0-4.96-2.1-4.96-4.96s2.23-4.96,4.96-4.96,4.96,2.36,4.96,4.96-2.23,4.96-4.96,4.96Z"/>
      <path class="cls-1" d="M395.39,1034.22c0-2.73,2.11-4.96,4.84-5.08,2.73,0,4.96,2.1,5.08,4.84.12,2.6-2.23,5.08-4.84,5.08-2.73.12-5.08-2.11-5.08-4.84Z"/>
      <path class="cls-1" d="M576.83,1064.73c0,2.73-2.36,4.96-4.96,4.96s-4.96-2.36-4.96-4.96c0-2.73,2.36-4.96,5.08-4.96s4.84,2.11,4.84,4.96Z"/>
      <path class="cls-1" d="M1054.55,672.33c2.36.12,4.34,2.23,4.34,4.59-.12,2.48-2.36,4.59-4.84,4.34-2.48-.13-4.21-2.24-4.09-4.72.13-2.36,2.23-4.21,4.59-4.21Z"/>
      <path class="cls-1" d="M59.55,614.78c2.48.13,4.59,2.36,4.34,4.96-.26,2.48-2.24,4.21-4.72,3.97-2.36-.12-4.34-2.36-4.21-4.71.12-2.36,2.23-4.34,4.59-4.22Z"/>
      <path class="cls-1" d="M1048.97,733.96c.13,2.36-1.86,4.47-4.21,4.59-2.36.13-4.47-1.74-4.72-4.21-.25-2.49,1.49-4.59,3.97-4.72,2.6-.25,4.84,1.74,4.96,4.34Z"/>
      <path class="cls-1" d="M1004.94,312.67c-.12,2.48-2.35,4.59-4.96,4.34-2.23-.25-4.09-2.11-4.09-4.34,0-2.48,2.23-4.71,4.71-4.59,2.49.13,4.34,2.11,4.34,4.59Z"/>
      <path class="cls-1" d="M952.85,240.62c2.61-.13,4.72,1.98,4.72,4.59,0,2.35-2.11,4.46-4.47,4.33-2.35,0-4.46-1.98-4.46-4.33-.13-2.49,1.74-4.47,4.21-4.59Z"/>
      <path class="cls-1" d="M187.78,232.68c-2.48-.13-4.59-2.36-4.34-4.96.25-2.23,2.11-4.09,4.34-4.09,2.48,0,4.71,2.24,4.59,4.72-.13,2.48-2.11,4.34-4.59,4.34Z"/>
      <path class="cls-1" d="M342.55,1028.76c-2.48-.12-4.59-2.36-4.47-4.84.13-2.23,2.11-4.09,4.34-4.09,2.49,0,4.72,2.11,4.59,4.72,0,2.35-1.98,4.21-4.46,4.21Z"/>
      <path class="cls-1" d="M754.42,1041.9c-2.48,0-4.71-2.1-4.71-4.59,0-2.23,1.86-4.09,4.09-4.33,2.48-.13,4.71,1.98,4.84,4.46.12,2.48-1.74,4.34-4.22,4.46Z"/>
      <path class="cls-1" d="M572.49,55.33c2.48,0,4.34,1.98,4.34,4.46s-2.36,4.59-4.84,4.47c-2.23-.13-4.09-2.11-4.09-4.34-.12-2.49,2.11-4.59,4.59-4.59Z"/>
      <path class="cls-1" d="M686.71,75.42c2.48,0,4.59,2.23,4.46,4.84-.12,2.48-2.23,4.34-4.59,4.09-2.36-.12-4.34-2.23-4.34-4.58s2.11-4.34,4.47-4.34Z"/>
      <path class="cls-1" d="M1069.06,619.5c0,2.48-2.23,4.71-4.71,4.59-2.24-.13-4.09-1.99-4.22-4.22-.12-2.48,1.98-4.71,4.59-4.71s4.34,1.98,4.34,4.34Z"/>
      <path class="cls-1" d="M629.29,65.25c2.6-.13,4.71,1.98,4.71,4.59,0,2.35-2.11,4.46-4.46,4.34-2.36,0-4.47-1.99-4.47-4.34-.12-2.49,1.74-4.47,4.22-4.59Z"/>
      <path class="cls-1" d="M956.45,891.84c2.11,0,3.97,1.86,3.85,3.97,0,2.11-1.86,3.85-3.97,3.85s-3.97-1.74-3.85-3.97c.12-1.98,1.86-3.73,3.97-3.85Z"/>
      <path class="cls-1" d="M1051.69,380.14c0,2.1-1.86,3.97-3.97,3.84-2.11,0-3.85-1.86-3.85-3.97s1.74-3.97,3.97-3.85c2.11,0,3.85,1.86,3.85,3.97Z"/>
      <path class="cls-1" d="M906.22,181.45c-2.11,0-3.97-1.74-3.97-3.85-.12-2.1,1.61-3.97,3.85-3.97,2.11,0,3.97,1.74,3.97,3.85.12,2.11-1.74,3.97-3.85,3.97Z"/>
      <path class="cls-1" d="M113.98,332.63c0,2.11-1.74,3.97-3.85,3.97-2.1.12-3.97-1.61-3.97-3.85,0-2.11,1.74-3.97,3.85-3.97,2.11-.13,3.97,1.74,3.97,3.84Z"/>
      <path class="cls-1" d="M1078.49,561.95c0,2.11-1.86,3.97-3.85,3.97-2.11,0-3.97-1.74-3.97-3.84s1.86-3.85,3.97-3.97c2.11,0,3.85,1.74,3.85,3.85Z"/>
      <path class="cls-1" d="M744.63,93.77c-2.11.13-3.97-1.61-4.09-3.72-.13-2.11,1.61-4.09,3.72-4.09,2.11-.12,3.97,1.74,4.09,3.73.13,2.1-1.49,3.97-3.72,4.09Z"/>
      <path class="cls-1" d="M393.9,86.46c0,2.11-1.86,3.85-3.97,3.97-2.1,0-3.97-1.74-3.97-3.85s1.86-3.97,3.85-3.97c2.23,0,4.09,1.86,4.09,3.85Z"/>
      <path class="cls-1" d="M633.5,1074.52c0,2.11-1.86,3.85-3.97,3.97-2.11,0-3.97-1.74-3.85-3.84,0-2.11,1.86-3.97,3.97-3.97,1.98-.12,3.85,1.74,3.85,3.85Z"/>
      <path class="cls-1" d="M1034.21,788.16c1.74,0,3.22,1.49,3.22,3.1,0,1.86-1.61,3.47-3.47,3.35-1.61-.13-2.97-1.61-2.97-3.35.12-1.86,1.49-3.23,3.22-3.1Z"/>
      <path class="cls-1" d="M86.58,798.33c1.74,0,3.23,1.37,3.23,3.1.12,1.86-1.49,3.47-3.35,3.35-1.74,0-3.1-1.49-3.1-3.23.12-1.74,1.49-3.22,3.22-3.22Z"/>
      <path class="cls-1" d="M1088.03,504.66c0,1.74-1.36,3.22-2.97,3.34-1.86.13-3.47-1.49-3.47-3.34,0-1.61,1.49-3.1,3.22-3.1s3.1,1.36,3.22,3.1Z"/>
      <path class="cls-1" d="M52.85,676.67c.12,1.61-1.24,3.22-2.85,3.47-1.86.25-3.47-1.24-3.47-3.22,0-1.74,1.36-3.1,3.1-3.23,1.49-.12,3.09,1.24,3.22,2.98Z"/>
      <path class="cls-1" d="M133.96,865.79c1.61,0,3.1,1.49,3.1,3.23s-1.25,3.22-2.98,3.22c-1.86,0-3.47-1.49-3.35-3.35.13-1.74,1.61-3.1,3.23-3.1Z"/>
      <path class="cls-1" d="M184.06,935.99c.12,1.74-1.25,3.22-2.98,3.35-1.86.13-3.47-1.37-3.47-3.22,0-1.61,1.49-3.1,3.1-3.1,1.86-.13,3.35,1.24,3.35,2.97Z"/>
      <path class="cls-1" d="M120.44,278.69c-1.74,0-3.22-1.37-3.22-2.98,0-1.74,1.36-3.22,2.97-3.34,1.86-.13,3.47,1.49,3.47,3.34-.12,1.49-1.49,2.98-3.22,2.98Z"/>
      <path class="cls-1" d="M285.5,1017.1c-1.74,0-3.22-1.37-3.34-2.97-.13-1.86,1.49-3.48,3.34-3.35,1.61.12,3.1,1.61,3.1,3.22,0,1.74-1.36,3.1-3.1,3.1Z"/>
      <path class="cls-1" d="M804.77,100.35c0,1.74-1.49,3.09-3.22,2.97-1.74,0-3.23-1.49-3.23-3.1,0-1.86,1.61-3.47,3.48-3.22,1.74,0,3.1,1.61,2.97,3.35Z"/>
      <path class="cls-1" d="M518.29,49.62c-.12,1.74-1.49,3.1-3.22,3.1-1.86,0-3.35-1.74-3.22-3.47.12-1.61,1.74-2.98,3.47-2.85,1.74,0,3.1,1.49,2.97,3.22Z"/>
      <path class="cls-1" d="M690.05,1084.69c.13,1.61-1.24,3.1-2.97,3.35-1.74.12-3.22-1.12-3.35-2.85-.12-1.86,1.37-3.6,3.1-3.6,1.61,0,3.1,1.37,3.22,3.1Z"/>
      <path class="cls-1" d="M1095.23,449.83c-1.37-.12-2.36-.86-2.36-2.35s.99-2.24,2.36-2.24c1.24,0,1.98.74,2.11,2.11.12,1.49-.74,2.23-2.11,2.48Z"/>
      <path class="cls-1" d="M22.21,492.25c1.61.13,2.49.99,2.36,2.36-.12,1.24-.86,2.11-2.1,2.11-1.49.12-2.36-.74-2.36-2.23s.99-2.11,2.1-2.24Z"/>
      <path class="cls-1" d="M1091.26,803.78c-1.49-.25-2.24-1.11-2.11-2.6.12-1.24.87-1.99,2.23-1.99,1.49,0,2.36.87,2.23,2.24,0,1.61-.99,2.35-2.35,2.35Z"/>
      <path class="cls-1" d="M12.79,554.01c-1.49-.12-2.49-.74-2.49-2.23,0-1.37.87-2.23,2.36-2.23,1.24,0,1.98.86,2.11,1.98.12,1.49-.74,2.23-1.98,2.48Z"/>
      <path class="cls-1" d="M1059.88,322.97c-.25,1.49-1.11,2.23-2.48,2.1-1.24-.12-1.98-.86-1.98-2.1,0-1.49.86-2.36,2.23-2.36,1.49,0,2.23.99,2.23,2.36Z"/>
      <path class="cls-1" d="M1016.35,906.1c-.25,1.36-.99,2.23-2.48,2.23-1.49-.13-2.11-1.12-1.98-2.48.12-1.24.87-1.98,2.23-1.98s2.11.86,2.23,2.23Z"/>
      <path class="cls-1" d="M1124.12,629.67c-.25,1.36-1.11,2.23-2.48,2.1-1.49-.12-2.11-1.11-1.98-2.6.12-1.25.99-1.99,2.23-1.86,1.49,0,2.23.86,2.23,2.36Z"/>
      <path class="cls-1" d="M55.2,322.46c-.25,1.49-.99,2.36-2.49,2.11-1.36-.12-2.23-1.11-1.98-2.61.13-1.24.99-1.98,2.23-1.98,1.37.25,2.11,1.12,2.24,2.48Z"/>
      <path class="cls-1" d="M582.16,4.48c-1.37-.25-2.23-1.12-2.11-2.48.13-1.49,1.12-2.11,2.61-1.99,1.24.13,1.98.99,1.86,2.24-.13,1.36-.99,2.1-2.36,2.23Z"/>
      <path class="cls-1" d="M123.91,928.55c-1.49,0-2.48-.74-2.48-2.1,0-1.49.87-2.36,2.23-2.36,1.24,0,2.11.74,2.23,1.98.13,1.37-.62,2.23-1.98,2.48Z"/>
      <path class="cls-1" d="M31.63,791.38c-.25,1.49-1.11,2.23-2.6,2.11-1.24-.13-1.99-.87-1.99-2.11,0-1.49.87-2.36,2.24-2.36,1.61,0,2.35,1,2.35,2.36Z"/>
      <path class="cls-1" d="M639.71,10.18c1.61.13,2.48.99,2.35,2.36,0,1.24-.74,2.11-1.98,2.11-1.49.12-2.36-.62-2.48-2.11,0-1.37.99-2.11,2.11-2.36Z"/>
      <path class="cls-1" d="M4.48,609.08c-.12,1.61-.86,2.48-2.35,2.48-1.25,0-2.11-.74-2.11-1.98-.13-1.49.62-2.36,2.11-2.49,1.49-.12,2.1.87,2.35,1.99Z"/>
      <path class="cls-1" d="M78.64,858.97c-.25,1.49-1.11,2.23-2.6,2.11-1.24-.13-1.99-.87-1.99-2.23,0-1.49.87-2.36,2.24-2.23,1.49,0,2.23.99,2.35,2.35Z"/>
      <path class="cls-1" d="M699.36,22.84c-.25,1.36-.99,2.23-2.48,2.23-1.49-.13-2.11-1.12-1.99-2.48.13-1.25.87-1.99,2.24-1.99,1.36-.12,2.1.74,2.23,2.24Z"/>
      <path class="cls-1" d="M402.58,29.28c-.13,1.37-.74,2.36-2.24,2.36-1.36,0-2.23-.87-2.23-2.36,0-1.24.87-1.98,1.98-2.11,1.37-.12,2.24.5,2.49,2.11Z"/>
      <path class="cls-1" d="M1008.42,255.37c.12-1.36.74-2.35,2.23-2.35,1.36,0,2.23.86,2.23,2.35,0,1.25-.87,1.99-1.98,2.11-1.37.25-2.23-.5-2.48-2.11Z"/>
      <path class="cls-1" d="M754.42,34.87c-1.36-.12-2.36-.86-2.36-2.23,0-1.49.87-2.23,2.36-2.23,1.24,0,2.11.74,2.11,1.98.12,1.49-.62,2.23-2.11,2.48Z"/>
      <path class="cls-1" d="M944.3,953.6c.12-1.37.74-2.36,2.23-2.36,1.37,0,2.23.87,2.23,2.36,0,1.24-.86,1.98-1.98,2.11-1.49.12-2.36-.62-2.48-2.11Z"/>
      <path class="cls-1" d="M457.4,36.98c1.37.12,2.36.87,2.23,2.36,0,1.36-.99,2.23-2.36,2.23-1.24,0-1.98-.87-2.1-2.11,0-1.49.74-2.36,2.23-2.48Z"/>
      <path class="cls-1" d="M811.47,45.16c-1.49-.13-2.24-.99-2.24-2.36.13-1.24.87-2.11,2.11-2.11,1.49,0,2.36.74,2.36,2.23.12,1.49-.87,2.11-2.23,2.24Z"/>
      <path class="cls-1" d="M858.84,108.16c1.37.25,2.23.99,2.23,2.48,0,1.24-.74,1.98-2.1,2.11-1.49.12-2.36-.74-2.36-2.11,0-1.49.87-2.36,2.23-2.48Z"/>
      <path class="cls-1" d="M277.82,66.25c-.13,1.36-.87,2.35-2.24,2.35-1.49,0-2.23-.86-2.23-2.35,0-1.24.74-2.11,1.98-2.11,1.37-.12,2.24.62,2.49,2.11Z"/>
      <path class="cls-1" d="M334.99,76.17c-.13,1.36-.74,2.35-2.24,2.35-1.36,0-2.23-.86-2.23-2.35,0-1.24.87-1.98,1.98-2.11,1.49-.13,2.36.62,2.49,2.11Z"/>
      <path class="cls-1" d="M1101.68,746.61c-1.49-.25-2.36-1.11-2.24-2.48.13-1.36,1.12-2.23,2.61-1.98,1.24.12,1.86.99,1.86,2.23,0,1.49-.87,2.11-2.23,2.23Z"/>
      <path class="cls-1" d="M130.48,215.56c1.49.13,2.49.74,2.49,2.23,0,1.37-.87,2.24-2.36,2.24-1.24,0-1.98-.87-2.11-1.99-.25-1.36.62-2.23,1.98-2.48Z"/>
      <path class="cls-1" d="M168.68,994.03c.13-1.49.74-2.48,2.23-2.48,1.37,0,2.24.86,2.24,2.35,0,1.24-.87,1.98-1.99,2.11-1.36.12-2.23-.62-2.48-1.98Z"/>
      <path class="cls-1" d="M881.29,1000.48c-.25,1.49-1.12,2.24-2.48,2.11-1.24-.12-1.99-.86-1.99-2.11,0-1.49.87-2.35,2.24-2.35,1.36.12,2.1.99,2.23,2.35Z"/>
      <path class="cls-1" d="M965.63,187.66c0,1.49-.74,2.48-2.23,2.48-1.24,0-2.11-.62-2.23-1.86-.25-1.49.62-2.36,1.98-2.61,1.49-.25,2.23.62,2.48,1.98Z"/>
      <path class="cls-1" d="M230.44,1003.71c-.12,1.49-.99,2.23-2.36,2.23-1.24-.13-2.1-.87-2.1-2.11,0-1.49.74-2.36,2.23-2.36,1.49-.12,2.11.87,2.23,2.24Z"/>
      <path class="cls-1" d="M938.47,1010.65c-.13,1.49-.99,2.36-2.48,2.24-1.37-.13-2.24-1.12-2.11-2.49.12-1.24.99-1.98,2.23-1.98,1.61,0,2.36.87,2.36,2.23Z"/>
      <path class="cls-1" d="M41.56,733.96c-.12,1.37-.86,2.36-2.23,2.36-1.49,0-2.23-.87-2.23-2.36,0-1.24.74-2.11,1.98-2.11,1.37-.12,2.23.62,2.48,2.11Z"/>
      <path class="cls-1" d="M45.28,380.14c-.13,1.49-.99,2.35-2.49,2.23-1.36-.13-2.23-1.12-2.1-2.48.12-1.25.99-1.99,2.23-1.99,1.49-.12,2.23.74,2.36,2.24Z"/>
      <path class="cls-1" d="M210.35,113.74c-.12,1.36-.86,2.23-2.36,2.23-1.24,0-2.1-.74-2.23-1.98-.12-1.37.62-2.36,2.11-2.48,1.49-.13,2.23.74,2.48,2.23Z"/>
      <path class="cls-1" d="M915.9,118.09c1.36.12,2.35.74,2.35,2.23s-.86,2.23-2.23,2.23c-1.24,0-2.1-.74-2.23-1.98-.12-1.37.62-2.23,2.11-2.48Z"/>
      <path class="cls-1" d="M267.52,123.42c0,1.36-.74,2.35-2.23,2.35-1.24,0-2.11-.62-2.36-1.86-.25-1.49.62-2.36,1.98-2.61,1.49-.12,2.36.74,2.61,2.11Z"/>
      <path class="cls-1" d="M197.7,173.28c-1.37-.25-2.23-1.12-2.11-2.49.13-1.49,1.12-2.1,2.61-1.98,1.24.13,1.98.99,1.86,2.23-.13,1.37-.99,2.11-2.36,2.24Z"/>
      <path class="cls-1" d="M1132.19,570.01c1.61.38,2.35,1.24,2.23,2.61-.13,1.24-.99,1.98-2.23,1.86-1.49,0-2.36-.87-2.24-2.36,0-1.37,1.12-1.98,2.24-2.11Z"/>
      <path class="cls-1" d="M809.24,1047.86c0-1.49.74-2.36,2.24-2.36,1.24,0,2.1.62,2.23,1.86.25,1.49-.62,2.36-1.98,2.61-1.37.12-2.24-.74-2.49-2.11Z"/>
      <path class="cls-1" d="M1111.72,689.44c-1.37-.12-2.36-.86-2.36-2.23,0-1.49.87-2.23,2.36-2.23,1.24,0,2.11.74,2.11,1.98.12,1.37-.62,2.23-2.11,2.48Z"/>
      <path class="cls-1" d="M868.89,1060.26c-1.49-.12-2.49-.74-2.49-2.23,0-1.37.87-2.23,2.36-2.23,1.24,0,1.98.86,2.11,1.98.25,1.49-.62,2.36-1.98,2.48Z"/>
      <path class="cls-1" d="M1026.15,848.93c-.13,1.36-.87,2.23-2.36,2.23-1.24,0-2.11-.74-2.23-1.98-.13-1.37.62-2.36,2.11-2.48,1.49-.13,2.23.74,2.48,2.23Z"/>
      <path class="cls-1" d="M277.82,1071.3c-.25,1.49-1.12,2.23-2.61,2.1-1.24-.12-1.98-.86-1.98-2.1,0-1.49.86-2.36,2.23-2.36,1.61,0,2.23.99,2.36,2.36Z"/>
      <path class="cls-1" d="M1105.15,388.07c1.49.25,2.23,1.12,2.11,2.61-.13,1.24-.87,1.98-2.11,1.98-1.49,0-2.36-.86-2.36-2.23,0-1.49.99-2.23,2.36-2.36Z"/>
      <path class="cls-1" d="M334.99,1081.47c-.13,1.36-.87,2.35-2.36,2.23-1.37,0-2.23-.99-2.23-2.36,0-1.24.86-1.98,2.1-2.11,1.61-.12,2.36.75,2.49,2.24Z"/>
      <path class="cls-1" d="M30.4,437.56c.13-1.49.74-2.49,2.23-2.49,1.37,0,2.24.87,2.24,2.36,0,1.24-.87,1.98-1.98,2.11-1.37.12-2.24-.74-2.49-1.98Z"/>
      <path class="cls-1" d="M392.28,1091.39c-.25,1.36-.99,2.35-2.48,2.23-1.49-.13-2.23-1.12-2.11-2.48.13-1.24.87-1.99,2.11-1.99,1.61,0,2.36.75,2.48,2.24Z"/>
      <path class="cls-1" d="M746.23,1095.11c-.12,1.37-.86,2.23-2.35,2.23-1.25,0-2.11-.74-2.11-1.98-.13-1.49.62-2.36,2.11-2.48,1.36-.13,2.1.74,2.35,2.23Z"/>
      <path class="cls-1" d="M449.46,1101.68c-.12,1.49-.99,2.23-2.36,2.23-1.24-.12-2.1-.86-2.1-2.1-.13-1.49.74-2.36,2.23-2.36,1.37-.13,2.11.87,2.23,2.23Z"/>
      <path class="cls-1" d="M505.02,1114.21c-1.61-.25-2.49-.99-2.36-2.48.12-1.49,1.11-2.24,2.48-2.11,1.24.12,1.98.87,1.98,2.11,0,1.61-.99,2.23-2.1,2.48Z"/>
      <path class="cls-1" d="M562.07,1124.13c-1.61-.25-2.36-1.12-2.23-2.61.12-1.24.86-1.98,2.23-1.98,1.49,0,2.36.86,2.36,2.23-.13,1.49-1.24,2.11-2.36,2.36Z"/>
      <path class="cls-1" d="M621.6,1131.94c0,1.37-.74,2.36-2.23,2.36-1.25,0-2.11-.62-2.36-1.86-.25-1.49.62-2.36,1.98-2.61,1.49-.12,2.23.74,2.61,2.11Z"/>
    </g>
  </g>
</svg>