<?xml version="1.0" encoding="UTF-8"?>
<svg id="Camada_2" data-name="Camada 2" xmlns="http://www.w3.org/2000/svg" viewBox="0 0 258.38 258.38">
  <defs>
    <style>
      .cls-1 {
        fill: #20dcc6;
        stroke-width: 0px;
      }
    </style>
  </defs>
  <g id="Camada_6" data-name="Camada 6">
    <path class="cls-1" d="M86.53,258.38c-3.38,0-6.79-.66-10.02-1.99-8.85-3.66-14.98-11.85-16.01-21.38l-3.31-30.63c-3.07-28.4-14.17-55.18-32.08-77.44l-19.32-24c-6-7.46-7.46-17.59-3.79-26.44,3.66-8.85,11.86-14.98,21.38-16.01l30.63-3.31c28.4-3.07,55.18-14.17,77.44-32.08l24-19.32c7.46-6,17.59-7.46,26.44-3.79,8.85,3.66,14.98,11.85,16.01,21.38l3.31,30.63c3.07,28.4,14.17,55.18,32.08,77.44l19.32,24c6,7.46,7.46,17.59,3.79,26.44s-11.85,14.98-21.38,16.01l-30.63,3.31c-28.4,3.07-55.18,14.17-77.44,32.08l-24,19.32c-4.73,3.81-10.54,5.79-16.42,5.79ZM167.98,21.37l-24,19.32c-25.24,20.31-55.61,32.89-87.83,36.38l-30.63,3.31c-3.29.36-4.63,2.76-5.05,3.78s-1.18,3.67.9,6.24l19.32,24c20.31,25.24,32.89,55.61,36.38,87.83l3.31,30.63c.36,3.29,2.76,4.63,3.78,5.05,1.02.42,3.67,1.18,6.24-.9l24-19.32c25.24-20.31,55.61-32.89,87.83-36.38l30.63-3.31c3.29-.36,4.63-2.76,5.05-3.78.42-1.02,1.18-3.67-.9-6.24l-19.32-24c-20.31-25.24-32.89-55.61-36.38-87.83l-3.31-30.63c-.36-3.29-2.76-4.63-3.78-5.05-1.02-.42-3.67-1.18-6.24.9h0Z"/>
  </g>
</svg>