<?xml version="1.0" encoding="UTF-8"?>
<svg id="Camada_2" data-name="Camada 2" xmlns="http://www.w3.org/2000/svg" viewBox="0 0 512.03 512.03">
  <defs>
    <style>
      .cls-1 {
        fill: #20dcc6;
        stroke-width: 0px;
      }
    </style>
  </defs>
  <g id="Camada_6" data-name="Camada 6">
    <path class="cls-1" d="M168.15,512.03c-5.62,0-11.3-1.12-16.78-3.38-14.88-6.17-24.8-19.41-26.54-35.42l-6.84-63.2c-6.56-60.63-30.24-117.8-68.47-165.31l-39.85-49.53c-10.1-12.55-12.45-28.93-6.28-43.81s19.41-24.8,35.42-26.54l63.2-6.84c60.63-6.56,117.8-30.24,165.31-68.47l49.53-39.85c12.55-10.1,28.93-12.45,43.81-6.28,14.88,6.17,24.8,19.41,26.54,35.42l6.84,63.2c6.56,60.63,30.24,117.8,68.47,165.31l39.85,49.53c10.1,12.55,12.45,28.93,6.28,43.81s-19.41,24.8-35.42,26.54l-63.2,6.84c-60.63,6.56-117.8,30.24-165.31,68.47l-49.53,39.85c-7.93,6.38-17.39,9.67-27.03,9.67ZM343.96,20.04c-5.2,0-10.3,1.77-14.57,5.21l-49.53,39.85c-50.5,40.64-111.25,65.8-175.69,72.78l-63.2,6.84c-8.63.93-15.77,6.28-19.1,14.31-3.32,8.02-2.06,16.85,3.39,23.62l39.85,49.53c40.64,50.5,65.8,111.25,72.78,175.69l6.84,63.2c.93,8.63,6.28,15.77,14.31,19.1,8.02,3.32,16.85,2.06,23.62-3.39l49.53-39.85c50.5-40.64,111.25-65.8,175.69-72.78l63.2-6.84c8.63-.93,15.77-6.28,19.1-14.31,3.32-8.02,2.06-16.85-3.39-23.62l-39.85-49.53c-40.64-50.5-65.8-111.25-72.78-175.69l-6.84-63.2c-.93-8.63-6.28-15.77-14.31-19.1-2.95-1.22-6.02-1.82-9.05-1.82Z"/>
    <path class="cls-1" d="M212.61,387.28c-3.42,0-6.86-.66-10.13-2.02-8.94-3.7-15.14-11.98-16.19-21.6l-3.37-31.16c-3.13-28.93-14.43-56.21-32.67-78.88l-19.65-24.42c-6.07-7.54-7.54-17.78-3.83-26.72s11.98-15.14,21.6-16.19l31.16-3.37c28.93-3.13,56.21-14.43,78.88-32.67l24.42-19.65c7.54-6.07,17.78-7.54,26.72-3.83,8.94,3.7,15.14,11.98,16.19,21.6l3.37,31.16c3.13,28.93,14.43,56.21,32.67,78.88l19.65,24.42c6.07,7.54,7.54,17.78,3.83,26.72s-11.98,15.14-21.6,16.19l-31.16,3.37c-28.93,3.13-56.21,14.43-78.88,32.67l-24.42,19.65c-4.78,3.85-10.66,5.85-16.59,5.85ZM299.34,144.73c-1.18,0-2.59.33-3.97,1.45l-24.42,19.65c-25.66,20.65-56.52,33.43-89.26,36.97l-31.16,3.37c-3.44.37-4.84,2.89-5.28,3.95-.44,1.06-1.23,3.83.94,6.53l19.65,24.42c20.65,25.66,33.43,56.52,36.97,89.26l3.37,31.16c.37,3.44,2.89,4.84,3.95,5.28,1.06.44,3.83,1.23,6.53-.94l24.42-19.65c25.66-20.65,56.52-33.43,89.26-36.97l31.16-3.37c3.44-.37,4.84-2.89,5.28-3.95.44-1.06,1.23-3.83-.94-6.53l-19.65-24.42c-20.65-25.66-33.43-56.52-36.97-89.26l-3.37-31.16c-.37-3.44-2.89-4.84-3.95-5.28-.52-.21-1.44-.51-2.55-.51Z"/>
  </g>
</svg>